<?xml version="1.0" encoding="UTF-8" standalone="no"?>
<!DOCTYPE svg PUBLIC "-//W3C//DTD SVG 1.1//EN"
 "http://www.w3.org/Graphics/SVG/1.1/DTD/svg11.dtd">
<!-- Generated by graphviz version 2.47.3 (20210619.1520)
 -->
<!-- Title: dependencies Pages: 1 -->
<svg width="1110pt" height="247pt"
 viewBox="0.00 0.00 1110.00 246.80" xmlns="http://www.w3.org/2000/svg" xmlns:xlink="http://www.w3.org/1999/xlink">
<g id="graph0" class="graph" transform="scale(1 1) rotate(0) translate(4 242.8)">
<title>dependencies</title>
<polygon fill="white" stroke="transparent" points="-4,4 -4,-242.8 1106,-242.8 1106,4 -4,4"/>
<text text-anchor="middle" x="551" y="-8.2" font-family="sans-serif" font-size="14.00">dependencies</text>
<g id="clust1" class="cluster">
<title>cluster_TeachersModule</title>
<polygon fill="none" stroke="black" stroke-dasharray="1,5" points="8,-32.8 8,-230.8 1094,-230.8 1094,-32.8 8,-32.8"/>
</g>
<g id="clust5" class="cluster">
<title>cluster_TeachersModule_exports</title>
<polygon fill="none" stroke="black" points="492,-170.8 492,-222.8 684,-222.8 684,-170.8 492,-170.8"/>
</g>
<g id="clust4" class="cluster">
<title>cluster_TeachersModule_imports</title>
<polygon fill="none" stroke="black" points="790,-40.8 790,-92.8 1086,-92.8 1086,-40.8 790,-40.8"/>
</g>
<g id="clust2" class="cluster">
<title>cluster_TeachersModule_declarations</title>
<polygon fill="none" stroke="black" points="594,-40.8 594,-92.8 782,-92.8 782,-40.8 594,-40.8"/>
</g>
<g id="clust7" class="cluster">
<title>cluster_TeachersModule_providers</title>
<polygon fill="none" stroke="black" points="16,-40.8 16,-92.8 586,-92.8 586,-40.8 16,-40.8"/>
</g>
<!-- CourseTeachersComponent -->
<g id="node1" class="node">
<title>CourseTeachersComponent</title>
<polygon fill="#ffffb3" stroke="black" points="773.51,-84.8 602.49,-84.8 602.49,-48.8 773.51,-48.8 773.51,-84.8"/>
<text text-anchor="middle" x="688" y="-62.6" font-family="Times,serif" font-size="14.00">CourseTeachersComponent</text>
</g>
<!-- TeachersModule -->
<g id="node2" class="node">
<title>TeachersModule</title>
<polygon fill="#8dd3c7" stroke="black" points="643.07,-149.8 640.07,-153.8 619.07,-153.8 616.07,-149.8 532.93,-149.8 532.93,-113.8 643.07,-113.8 643.07,-149.8"/>
<text text-anchor="middle" x="588" y="-127.6" font-family="Times,serif" font-size="14.00">TeachersModule</text>
</g>
<!-- CourseTeachersComponent&#45;&gt;TeachersModule -->
<g id="edge1" class="edge">
<title>CourseTeachersComponent&#45;&gt;TeachersModule</title>
<path fill="none" stroke="black" d="M622.64,-84.91C622.64,-84.91 622.64,-103.79 622.64,-103.79"/>
<polygon fill="black" stroke="black" points="619.14,-103.79 622.64,-113.79 626.14,-103.79 619.14,-103.79"/>
</g>
<!-- CourseTeachersComponent  -->
<g id="node5" class="node">
<title>CourseTeachersComponent </title>
<polygon fill="#fb8072" stroke="black" points="675.51,-214.8 500.49,-214.8 500.49,-178.8 675.51,-178.8 675.51,-214.8"/>
<text text-anchor="middle" x="588" y="-192.6" font-family="Times,serif" font-size="14.00">CourseTeachersComponent </text>
</g>
<!-- TeachersModule&#45;&gt;CourseTeachersComponent  -->
<g id="edge4" class="edge">
<title>TeachersModule&#45;&gt;CourseTeachersComponent </title>
<path fill="none" stroke="black" stroke-dasharray="5,2" d="M588,-149.91C588,-149.91 588,-168.79 588,-168.79"/>
<polygon fill="black" stroke="black" points="584.5,-168.79 588,-178.79 591.5,-168.79 584.5,-168.79"/>
</g>
<!-- MaterialModule -->
<g id="node3" class="node">
<title>MaterialModule</title>
<polygon fill="#8dd3c7" stroke="black" points="1078.47,-84.8 1075.47,-88.8 1054.47,-88.8 1051.47,-84.8 971.53,-84.8 971.53,-48.8 1078.47,-48.8 1078.47,-84.8"/>
<text text-anchor="middle" x="1025" y="-62.6" font-family="Times,serif" font-size="14.00">MaterialModule</text>
</g>
<!-- MaterialModule&#45;&gt;TeachersModule -->
<g id="edge2" class="edge">
<title>MaterialModule&#45;&gt;TeachersModule</title>
<path fill="none" stroke="black" d="M1025,-85.08C1025,-106.12 1025,-137.8 1025,-137.8 1025,-137.8 653.35,-137.8 653.35,-137.8"/>
<polygon fill="black" stroke="black" points="653.35,-134.3 643.35,-137.8 653.35,-141.3 653.35,-134.3"/>
</g>
<!-- TeachersRoutingModule -->
<g id="node4" class="node">
<title>TeachersRoutingModule</title>
<polygon fill="#8dd3c7" stroke="black" points="953.68,-84.8 950.68,-88.8 929.68,-88.8 926.68,-84.8 798.32,-84.8 798.32,-48.8 953.68,-48.8 953.68,-84.8"/>
<text text-anchor="middle" x="876" y="-62.6" font-family="Times,serif" font-size="14.00">TeachersRoutingModule</text>
</g>
<!-- TeachersRoutingModule&#45;&gt;TeachersModule -->
<g id="edge3" class="edge">
<title>TeachersRoutingModule&#45;&gt;TeachersModule</title>
<path fill="none" stroke="black" d="M876,-84.82C876,-102.17 876,-125.8 876,-125.8 876,-125.8 653.19,-125.8 653.19,-125.8"/>
<polygon fill="black" stroke="black" points="653.19,-122.3 643.19,-125.8 653.19,-129.3 653.19,-122.3"/>
</g>
<!-- TeacherDataService -->
<g id="node6" class="node">
<title>TeacherDataService</title>
<ellipse fill="#fdb462" stroke="black" cx="489" cy="-66.8" rx="89.12" ry="18"/>
<text text-anchor="middle" x="489" y="-62.6" font-family="Times,serif" font-size="14.00">TeacherDataService</text>
</g>
<!-- TeacherDataService&#45;&gt;TeachersModule -->
<g id="edge5" class="edge">
<title>TeacherDataService&#45;&gt;TeachersModule</title>
<path fill="none" stroke="black" d="M555.64,-79.03C555.64,-79.03 555.64,-103.48 555.64,-103.48"/>
<polygon fill="black" stroke="black" points="552.14,-103.48 555.64,-113.48 559.14,-103.48 552.14,-103.48"/>
</g>
<!-- TeacherEntityService -->
<g id="node7" class="node">
<title>TeacherEntityService</title>
<ellipse fill="#fdb462" stroke="black" cx="287" cy="-66.8" rx="94.88" ry="18"/>
<text text-anchor="middle" x="287" y="-62.6" font-family="Times,serif" font-size="14.00">TeacherEntityService</text>
</g>
<!-- TeacherEntityService&#45;&gt;TeachersModule -->
<g id="edge6" class="edge">
<title>TeacherEntityService&#45;&gt;TeachersModule</title>
<path fill="none" stroke="black" d="M287,-84.82C287,-102.17 287,-125.8 287,-125.8 287,-125.8 522.79,-125.8 522.79,-125.8"/>
<polygon fill="black" stroke="black" points="522.79,-129.3 532.79,-125.8 522.79,-122.3 522.79,-129.3"/>
</g>
<!-- TeachersService -->
<g id="node8" class="node">
<title>TeachersService</title>
<ellipse fill="#fdb462" stroke="black" cx="99" cy="-66.8" rx="74.67" ry="18"/>
<text text-anchor="middle" x="99" y="-62.6" font-family="Times,serif" font-size="14.00">TeachersService</text>
</g>
<!-- TeachersService&#45;&gt;TeachersModule -->
<g id="edge7" class="edge">
<title>TeachersService&#45;&gt;TeachersModule</title>
<path fill="none" stroke="black" d="M99,-85.08C99,-106.12 99,-137.8 99,-137.8 99,-137.8 522.86,-137.8 522.86,-137.8"/>
<polygon fill="black" stroke="black" points="522.86,-141.3 532.86,-137.8 522.86,-134.3 522.86,-141.3"/>
</g>
</g>
</svg>
