<?xml version="1.0" encoding="UTF-8" standalone="no"?>
<!DOCTYPE svg PUBLIC "-//W3C//DTD SVG 1.1//EN"
 "http://www.w3.org/Graphics/SVG/1.1/DTD/svg11.dtd">
<!-- Generated by graphviz version 2.47.3 (20210619.1520)
 -->
<!-- Title: dependencies Pages: 1 -->
<svg width="2008pt" height="174pt"
 viewBox="0.00 0.00 2008.00 173.80" xmlns="http://www.w3.org/2000/svg" xmlns:xlink="http://www.w3.org/1999/xlink">
<g id="graph0" class="graph" transform="scale(1 1) rotate(0) translate(4 169.8)">
<title>dependencies</title>
<polygon fill="white" stroke="transparent" points="-4,4 -4,-169.8 2004,-169.8 2004,4 -4,4"/>
<text text-anchor="middle" x="1000" y="-8.2" font-family="sans-serif" font-size="14.00">dependencies</text>
<g id="clust1" class="cluster">
<title>cluster_InformationModule</title>
<polygon fill="none" stroke="black" stroke-dasharray="1,5" points="8,-32.8 8,-157.8 1992,-157.8 1992,-32.8 8,-32.8"/>
</g>
<g id="clust2" class="cluster">
<title>cluster_InformationModule_declarations</title>
<polygon fill="none" stroke="black" points="328,-40.8 328,-92.8 1984,-92.8 1984,-40.8 328,-40.8"/>
</g>
<g id="clust13" class="cluster">
<title>cluster_InformationModule_imports</title>
<polygon fill="none" stroke="black" points="16,-40.8 16,-92.8 320,-92.8 320,-40.8 16,-40.8"/>
</g>
<!-- AboutComponent -->
<g id="node1" class="node">
<title>AboutComponent</title>
<polygon fill="#ffffb3" stroke="black" points="1976.33,-84.8 1859.67,-84.8 1859.67,-48.8 1976.33,-48.8 1976.33,-84.8"/>
<text text-anchor="middle" x="1918" y="-62.6" font-family="Times,serif" font-size="14.00">AboutComponent</text>
</g>
<!-- InformationModule -->
<g id="node11" class="node">
<title>InformationModule</title>
<polygon fill="#8dd3c7" stroke="black" points="1056.42,-149.8 1053.42,-153.8 1032.42,-153.8 1029.42,-149.8 929.58,-149.8 929.58,-113.8 1056.42,-113.8 1056.42,-149.8"/>
<text text-anchor="middle" x="993" y="-127.6" font-family="Times,serif" font-size="14.00">InformationModule</text>
</g>
<!-- AboutComponent&#45;&gt;InformationModule -->
<g id="edge1" class="edge">
<title>AboutComponent&#45;&gt;InformationModule</title>
<path fill="none" stroke="black" d="M1918,-84.89C1918,-107.93 1918,-144.8 1918,-144.8 1918,-144.8 1066.21,-144.8 1066.21,-144.8"/>
<polygon fill="black" stroke="black" points="1066.21,-141.3 1056.21,-144.8 1066.21,-148.3 1066.21,-141.3"/>
</g>
<!-- CodeConductComponent -->
<g id="node2" class="node">
<title>CodeConductComponent</title>
<polygon fill="#ffffb3" stroke="black" points="1842.33,-84.8 1683.67,-84.8 1683.67,-48.8 1842.33,-48.8 1842.33,-84.8"/>
<text text-anchor="middle" x="1763" y="-62.6" font-family="Times,serif" font-size="14.00">CodeConductComponent</text>
</g>
<!-- CodeConductComponent&#45;&gt;InformationModule -->
<g id="edge2" class="edge">
<title>CodeConductComponent&#45;&gt;InformationModule</title>
<path fill="none" stroke="black" d="M1763,-85.08C1763,-106.12 1763,-137.8 1763,-137.8 1763,-137.8 1066.34,-137.8 1066.34,-137.8"/>
<polygon fill="black" stroke="black" points="1066.34,-134.3 1056.34,-137.8 1066.34,-141.3 1066.34,-134.3"/>
</g>
<!-- CodeConductSchoolComponent -->
<g id="node3" class="node">
<title>CodeConductSchoolComponent</title>
<polygon fill="#ffffb3" stroke="black" points="1665.71,-84.8 1468.29,-84.8 1468.29,-48.8 1665.71,-48.8 1665.71,-84.8"/>
<text text-anchor="middle" x="1567" y="-62.6" font-family="Times,serif" font-size="14.00">CodeConductSchoolComponent</text>
</g>
<!-- CodeConductSchoolComponent&#45;&gt;InformationModule -->
<g id="edge3" class="edge">
<title>CodeConductSchoolComponent&#45;&gt;InformationModule</title>
<path fill="none" stroke="black" d="M1567,-84.91C1567,-104.14 1567,-131.8 1567,-131.8 1567,-131.8 1066.35,-131.8 1066.35,-131.8"/>
<polygon fill="black" stroke="black" points="1066.35,-128.3 1056.35,-131.8 1066.35,-135.3 1066.35,-128.3"/>
</g>
<!-- InformationComponent -->
<g id="node4" class="node">
<title>InformationComponent</title>
<polygon fill="#ffffb3" stroke="black" points="1450.2,-84.8 1301.8,-84.8 1301.8,-48.8 1450.2,-48.8 1450.2,-84.8"/>
<text text-anchor="middle" x="1376" y="-62.6" font-family="Times,serif" font-size="14.00">InformationComponent</text>
</g>
<!-- InformationComponent&#45;&gt;InformationModule -->
<g id="edge4" class="edge">
<title>InformationComponent&#45;&gt;InformationModule</title>
<path fill="none" stroke="black" d="M1376,-84.82C1376,-102.17 1376,-125.8 1376,-125.8 1376,-125.8 1066.24,-125.8 1066.24,-125.8"/>
<polygon fill="black" stroke="black" points="1066.24,-122.3 1056.24,-125.8 1066.24,-129.3 1066.24,-122.3"/>
</g>
<!-- LicenseComponent -->
<g id="node5" class="node">
<title>LicenseComponent</title>
<polygon fill="#ffffb3" stroke="black" points="1283.36,-84.8 1158.64,-84.8 1158.64,-48.8 1283.36,-48.8 1283.36,-84.8"/>
<text text-anchor="middle" x="1221" y="-62.6" font-family="Times,serif" font-size="14.00">LicenseComponent</text>
</g>
<!-- LicenseComponent&#45;&gt;InformationModule -->
<g id="edge5" class="edge">
<title>LicenseComponent&#45;&gt;InformationModule</title>
<path fill="none" stroke="black" d="M1221,-85.04C1221,-100.37 1221,-119.8 1221,-119.8 1221,-119.8 1066.51,-119.8 1066.51,-119.8"/>
<polygon fill="black" stroke="black" points="1066.51,-116.3 1056.51,-119.8 1066.51,-123.3 1066.51,-116.3"/>
</g>
<!-- LocationComponent -->
<g id="node6" class="node">
<title>LocationComponent</title>
<polygon fill="#ffffb3" stroke="black" points="1140.6,-84.8 1009.4,-84.8 1009.4,-48.8 1140.6,-48.8 1140.6,-84.8"/>
<text text-anchor="middle" x="1075" y="-62.6" font-family="Times,serif" font-size="14.00">LocationComponent</text>
</g>
<!-- LocationComponent&#45;&gt;InformationModule -->
<g id="edge6" class="edge">
<title>LocationComponent&#45;&gt;InformationModule</title>
<path fill="none" stroke="black" d="M1032.83,-84.91C1032.83,-84.91 1032.83,-103.79 1032.83,-103.79"/>
<polygon fill="black" stroke="black" points="1029.33,-103.79 1032.83,-113.79 1036.33,-103.79 1029.33,-103.79"/>
</g>
<!-- PrivacyPolicyComponent -->
<g id="node7" class="node">
<title>PrivacyPolicyComponent</title>
<polygon fill="#ffffb3" stroke="black" points="991.87,-84.8 832.13,-84.8 832.13,-48.8 991.87,-48.8 991.87,-84.8"/>
<text text-anchor="middle" x="912" y="-62.6" font-family="Times,serif" font-size="14.00">PrivacyPolicyComponent</text>
</g>
<!-- PrivacyPolicyComponent&#45;&gt;InformationModule -->
<g id="edge7" class="edge">
<title>PrivacyPolicyComponent&#45;&gt;InformationModule</title>
<path fill="none" stroke="black" d="M960.86,-84.91C960.86,-84.91 960.86,-103.79 960.86,-103.79"/>
<polygon fill="black" stroke="black" points="957.36,-103.79 960.86,-113.79 964.36,-103.79 957.36,-103.79"/>
</g>
<!-- RemoteLearningComponent -->
<g id="node8" class="node">
<title>RemoteLearningComponent</title>
<polygon fill="#ffffb3" stroke="black" points="813.91,-84.8 638.09,-84.8 638.09,-48.8 813.91,-48.8 813.91,-84.8"/>
<text text-anchor="middle" x="726" y="-62.6" font-family="Times,serif" font-size="14.00">RemoteLearningComponent</text>
</g>
<!-- RemoteLearningComponent&#45;&gt;InformationModule -->
<g id="edge8" class="edge">
<title>RemoteLearningComponent&#45;&gt;InformationModule</title>
<path fill="none" stroke="black" d="M726,-85.04C726,-100.37 726,-119.8 726,-119.8 726,-119.8 919.72,-119.8 919.72,-119.8"/>
<polygon fill="black" stroke="black" points="919.72,-123.3 929.72,-119.8 919.72,-116.3 919.72,-123.3"/>
</g>
<!-- ReopenningComponent -->
<g id="node9" class="node">
<title>ReopenningComponent</title>
<polygon fill="#ffffb3" stroke="black" points="620.49,-84.8 471.51,-84.8 471.51,-48.8 620.49,-48.8 620.49,-84.8"/>
<text text-anchor="middle" x="546" y="-62.6" font-family="Times,serif" font-size="14.00">ReopenningComponent</text>
</g>
<!-- ReopenningComponent&#45;&gt;InformationModule -->
<g id="edge9" class="edge">
<title>ReopenningComponent&#45;&gt;InformationModule</title>
<path fill="none" stroke="black" d="M546,-84.82C546,-102.17 546,-125.8 546,-125.8 546,-125.8 919.43,-125.8 919.43,-125.8"/>
<polygon fill="black" stroke="black" points="919.43,-129.3 929.43,-125.8 919.43,-122.3 919.43,-129.3"/>
</g>
<!-- TermsComponent -->
<g id="node10" class="node">
<title>TermsComponent</title>
<polygon fill="#ffffb3" stroke="black" points="453.6,-84.8 336.4,-84.8 336.4,-48.8 453.6,-48.8 453.6,-84.8"/>
<text text-anchor="middle" x="395" y="-62.6" font-family="Times,serif" font-size="14.00">TermsComponent</text>
</g>
<!-- TermsComponent&#45;&gt;InformationModule -->
<g id="edge10" class="edge">
<title>TermsComponent&#45;&gt;InformationModule</title>
<path fill="none" stroke="black" d="M395,-84.91C395,-104.14 395,-131.8 395,-131.8 395,-131.8 919.57,-131.8 919.57,-131.8"/>
<polygon fill="black" stroke="black" points="919.57,-135.3 929.57,-131.8 919.57,-128.3 919.57,-135.3"/>
</g>
<!-- InformationRoutingModule -->
<g id="node12" class="node">
<title>InformationRoutingModule</title>
<polygon fill="#8dd3c7" stroke="black" points="311.54,-84.8 308.54,-88.8 287.54,-88.8 284.54,-84.8 140.46,-84.8 140.46,-48.8 311.54,-48.8 311.54,-84.8"/>
<text text-anchor="middle" x="226" y="-62.6" font-family="Times,serif" font-size="14.00">InformationRoutingModule</text>
</g>
<!-- InformationRoutingModule&#45;&gt;InformationModule -->
<g id="edge11" class="edge">
<title>InformationRoutingModule&#45;&gt;InformationModule</title>
<path fill="none" stroke="black" d="M226,-85.08C226,-106.12 226,-137.8 226,-137.8 226,-137.8 919.58,-137.8 919.58,-137.8"/>
<polygon fill="black" stroke="black" points="919.58,-141.3 929.58,-137.8 919.58,-134.3 919.58,-141.3"/>
</g>
<!-- SharedModule -->
<g id="node13" class="node">
<title>SharedModule</title>
<polygon fill="#8dd3c7" stroke="black" points="122.42,-84.8 119.42,-88.8 98.42,-88.8 95.42,-84.8 23.58,-84.8 23.58,-48.8 122.42,-48.8 122.42,-84.8"/>
<text text-anchor="middle" x="73" y="-62.6" font-family="Times,serif" font-size="14.00">SharedModule</text>
</g>
<!-- SharedModule&#45;&gt;InformationModule -->
<g id="edge12" class="edge">
<title>SharedModule&#45;&gt;InformationModule</title>
<path fill="none" stroke="black" d="M73,-84.89C73,-107.93 73,-144.8 73,-144.8 73,-144.8 919.76,-144.8 919.76,-144.8"/>
<polygon fill="black" stroke="black" points="919.76,-148.3 929.76,-144.8 919.76,-141.3 919.76,-148.3"/>
</g>
</g>
</svg>
