<svg viewBox="0 0 1600 900" xmlns="http://www.w3.org/2000/svg">
  <rect fill="#d9d5d4" stroke="#d9d5d4" stroke-width="2" stroke-linecap="round" stroke-linejoin="round" x="462.11"
    y="277.38" width="244.96000000000004" height="219.97000000000003" transform="translate(-1.59,-0.77)" />
  <rect fill="#a3a39f" stroke="#a3a39f" stroke-width="2" stroke-linecap="round" stroke-linejoin="round" x="457.67"
    y="233.67" width="246.58999999999997" height="40.28" transform="translate(1.09,2.48)" />
  <rect fill="#e1e5e9" stroke="#e1e5e9" stroke-width="2" stroke-linecap="round" stroke-linejoin="round" x="732.53"
    y="277.8" width="169.16000000000008" height="80.47999999999996"
    transform="translate(1480.28,516.55) scale(1.02,1.02) scale(1.38,1.38) translate(-817.11,-318.04)" />
  <rect fill="#b3aead" stroke="#b3aead" stroke-width="2" stroke-linecap="round" stroke-linejoin="round" x="733.56"
    y="368.06" width="168.66000000000008" height="74.92000000000002"
    transform="translate(898.16,523.37) scale(1.09,1.09) scale(0.41,0.41) translate(-817.89,-405.52)" />
  <rect fill="#90908c" stroke="#90908c" stroke-width="2" stroke-linecap="round" stroke-linejoin="round" x="734.46"
    y="452.64" width="167.49" height="10.090000000000032" />
  <rect fill="#e0dbdb" stroke="#e0dbdb" stroke-width="2" stroke-linecap="round" stroke-linejoin="round" x="929.47"
    y="338.71" width="206.3699999999999" height="94.65000000000003" />
  <rect fill="#e0dbdb" stroke="#e0dbdb" stroke-width="2" stroke-linecap="round" stroke-linejoin="round" x="921.75"
    y="223.42" width="211.08999999999992" height="99.03999999999999" transform="translate(4.72,1.88)" />
  <polyline fill="#b2b0a3" fill-rule="evenodd" stroke="#b2b0a3" stroke-width="2" stroke-linecap="round"
    stroke-linejoin="round" points=" 891.88,277.04 910.36,225.98" />
  <polyline fill="#b2b0a3" fill-rule="evenodd" stroke="#b2b0a3" stroke-width="2" stroke-linecap="round"
    stroke-linejoin="round" points=" 910.36,225.98 924.45,226.08" />
  <polyline fill="#b2b0a3" fill-rule="evenodd" stroke="#b2b0a3" stroke-width="2" stroke-linecap="round"
    stroke-linejoin="round" points=" 903.42,314.43 925.1,293.66" />
  <rect fill="#a39e92" fill-rule="evenodd" stroke="#a39e92" stroke-width="2" stroke-linecap="round"
    stroke-linejoin="round" x="911.49" y="225.88" width="14.019999999999982" height="65.88" />
  <rect fill="#a39e92" fill-rule="evenodd" stroke="#a39e92" stroke-width="2" stroke-linecap="round"
    stroke-linejoin="round" x="1230.84" y="192.92" width="13.060000000000173" height="49.45000000000002"
    transform="translate(96.01,1575.37) rotate(121.49) scale(1.00,-1.00) rotate(-121.49) translate(-444.77,-1804.20) rotate(201.87) scale(1.00,-1.00) rotate(-201.87) translate(0.00,302.53)" />
  <rect fill="#a39e92" fill-rule="evenodd" stroke="#a39e92" stroke-width="2" stroke-linecap="round"
    stroke-linejoin="round" x="897.86" y="268.53" width="26.639999999999986" height="52.440000000000055" />
  <rect fill="#a19d99" fill-rule="evenodd" stroke="#a19d99" stroke-width="2" stroke-linecap="round"
    stroke-linejoin="round" x="1240.57" y="298.1" width="16.49000000000001" height="95.16999999999996"
    transform="translate(843.71,336.94) scale(1.59,1.59) translate(-1282.93,-1156.28) rotate(222.71) scale(1.00,-1.00) rotate(-222.71) translate(-9.88,781.69) rotate(198.82) scale(1.00,-1.00) rotate(-198.82) translate(0.00,106.49)" />
  <rect fill="#a19f92" fill-rule="evenodd" stroke="#a19f92" stroke-width="2" stroke-linecap="round"
    stroke-linejoin="round" x="1216.64" y="313.92" width="56.539999999999964" height="93.91999999999996"
    transform="translate(-395.33,-204.88) rotate(204.37) scale(1.00,-1.00) rotate(-204.37) translate(0.00,237.18)" />
  <rect fill="#e1e1e1" fill-rule="evenodd" stroke="#e1e1e1" stroke-width="2" stroke-linecap="round"
    stroke-linejoin="round" x="706.04" y="283.09" width="28.139999999999986" height="178.93"
    transform="translate(720.81,334.85) scale(1.06,1.06) scale(0.84,0.84) scale(1.12,1.12) translate(-720.11,-372.56)" />
  <rect fill="#8c8976" fill-rule="evenodd" stroke="#8c8976" stroke-width="2" stroke-linecap="round"
    stroke-linejoin="round" x="1218.89" y="277.49" width="15.1099999999999" height="61.349999999999966"
    transform="translate(724.92,263.97) scale(1.03,1.03) scale(1.38,1.38) translate(-712.77,342.86) rotate(155.51) scale(1.00,-1.00) rotate(-155.51) translate(-506.15,-3.81) rotate(165.38) scale(1.00,-1.00) rotate(-165.38) translate(0.00,-640.87)" />
  <rect fill="#e9e6f0" fill-rule="evenodd" stroke="#e9e6f0" stroke-width="2" stroke-linecap="round"
    stroke-linejoin="round" x="706.59" y="411.16" width="27.079999999999927" height="51.299999999999955" />
  <rect fill="#e9e6f0" fill-rule="evenodd" stroke="#e9e6f0" stroke-width="2" stroke-linecap="round"
    stroke-linejoin="round" x="721.03" y="435.68" width="4.6200000000000045" height="2.8999999999999773" />
  <rect fill="#dce0e3" fill-rule="evenodd" stroke="#dce0e3" stroke-width="2" stroke-linecap="round"
    stroke-linejoin="round" x="735.11" y="285.86" width="167.98000000000002" height="71.24000000000001" />
  <rect fill="#b3aead" fill-rule="evenodd" stroke="#b3aead" stroke-width="2" stroke-linecap="round"
    stroke-linejoin="round" x="859.31" y="463.31" width="78.0100000000001" height="43.39999999999998"
    transform="translate(896.78,484.57) scale(0.97,0.97) scale(1.04,1.04) scale(0.96,0.96) translate(-898.31,-485.01)" />
  <rect fill="#a0a1aa" fill-rule="evenodd" stroke="#a0a1aa" stroke-width="2" stroke-linecap="round"
    stroke-linejoin="round" x="706.88" y="465.07" width="57.33000000000004" height="72.19"
    transform="translate(734.90,494.87) scale(0.96,0.96) scale(1.03,1.03) translate(-735.55,-501.17)" />
  <rect fill="#d6d7d9" fill-rule="evenodd" stroke="#d6d7d9" stroke-width="2" stroke-linecap="round"
    stroke-linejoin="round" x="251.77" y="508.91" width="453.93000000000006" height="61.69999999999999" />
  <rect fill="#d6d7d9" fill-rule="evenodd" stroke="#d6d7d9" stroke-width="2" stroke-linecap="round"
    stroke-linejoin="round" x="587.05" y="498.79" width="118.66000000000008" height="10.609999999999957"
    transform="translate(-0.34,-1.66)" />
  <rect fill="#c4c4bf" fill-rule="evenodd" stroke="#c4c4bf" stroke-width="2" stroke-linecap="round"
    stroke-linejoin="round" x="732.87" y="366.57" width="169.07000000000005" height="75.75"
    transform="translate(-0.15,-0.83)" />
  <rect fill="#c0bbb6" fill-rule="evenodd" stroke="#c0bbb6" stroke-width="2" stroke-linecap="round"
    stroke-linejoin="round" x="735.71" y="276.43" width="166.78999999999996" height="8.870000000000005"
    transform="translate(-0.80,-1.10)" />
  <rect fill="#a39e92" fill-rule="evenodd" stroke="#a39e92" stroke-width="2" stroke-linecap="round"
    stroke-linejoin="round" x="905.6" y="340.62" width="23.559999999999945" height="122.49000000000001"
    transform="translate(-3.61,-70.64)" />
  <rect fill="#a39e92" fill-rule="evenodd" stroke="#a39e92" stroke-width="2" stroke-linecap="round"
    stroke-linejoin="round" x="902.76" y="359.44" width="26.779999999999973" height="105.13999999999999"
    transform="translate(-0.21,-20.78)" />
  <rect fill="#999490" stroke="#999490" stroke-width="2" stroke-linecap="round" stroke-linejoin="round" x="1223.63"
    y="287.41" width="11.809999999999945" height="127.38999999999999"
    transform="translate(-225.48,-619.64) rotate(221.23) scale(1.00,-1.00) rotate(-221.23) translate(0.00,790.52)" />
  <rect fill="#999490" stroke="#999490" stroke-width="2" stroke-linecap="round" stroke-linejoin="round" x="1177.55"
    y="323.71" width="77.29999999999995" height="21.069999999999993" transform="translate(-249.58,118.43)" />
  <rect fill="#999490" stroke="#999490" stroke-width="2" stroke-linecap="round" x="902.65" y="445.18"
    width="30.279999999999973" height="21.05000000000001" transform="translate(-0.42,-2.47)" />
  <rect fill="#9b9787" stroke="#9b9787" stroke-width="2" stroke-linecap="round" x="458.29" y="228.65" width="262.44"
    height="6.849999999999994" transform="translate(-18.46,-0.16)" />
  <rect fill="#999490" stroke="#999490" stroke-width="2" stroke-linecap="round" stroke-linejoin="round" x="900.63"
    y="446.86" width="44.82000000000005" height="18.279999999999973"
    transform="translate(1014.92,445.03) scale(1.27,1.27) scale(1.25,1.25) scale(1.58,1.58) translate(-923.04,-456.00)" />
  <rect fill="#aea99d" stroke="#aea99d" stroke-width="2" stroke-linecap="round" stroke-linejoin="round" x="734.29"
    y="285.99" width="162.68000000000006" height="66.99000000000001"
    transform="translate(792.53,508.55) scale(1.04,1.04) scale(0.92,0.92) scale(1.23,1.23) translate(-1373.50,-1293.95) rotate(224.44) scale(1.00,-1.00) rotate(-224.44) translate(1320.60,1347.91) scale(0.40,0.40) translate(-815.63,-319.49)" />
  <line fill="none" stroke="yellow" stroke-width="3" stroke-linecap="round" x1="810.1" y1="469.99" x2="810.71"
    y2="549.16" />
  <rect fill="#aea99d" stroke="#aea99d" stroke-width="3" stroke-linecap="round" x="812.56" y="471.8"
    width="33.41000000000008" height="75.19"
    transform="translate(829.26,509.40) scale(1.08,1.08) translate(-829.26,-509.40)" />
  <line fill="none" stroke="#4a7597" stroke-width="15" stroke-linecap="round" x1="770.05" y1="463.8" x2="770.25"
    y2="549.14" />
  <line fill="none" stroke="#4a7597" stroke-width="15" stroke-linecap="round" x1="853.38" y1="463.68" x2="853.59"
    y2="544.59" />
  <line fill="none" stroke="#4a7597" stroke-width="15" stroke-linecap="round" x1="770.86" y1="465.94" x2="851.64"
    y2="466.33" transform="translate(0.37,-3.51)" />
  <line fill="none" stroke="rgb(26,95,180)" stroke-width="8" stroke-linecap="square" x1="733.31" y1="362.84" x2="895.18"
    y2="361.98" transform="translate(2.47,-0.06)" />
  <line fill="none" stroke="rgb(28,113,216)" stroke-width="12" stroke-linecap="square" x1="733.78" y1="441.32"
    x2="892.76" y2="441.37" transform="translate(816.43,446.34) scale(0.98,0.98) translate(-813.27,-441.34)" />
  <line fill="none" stroke="rgb(26,95,180)" stroke-width="10" stroke-linecap="square" x1="909.6" y1="215" x2="888.31"
    y2="269.3" transform="translate(0.80,-1.88)" />
  <line fill="none" stroke="rgb(53,132,228)" stroke-width="16" stroke-linecap="round" x1="735.58" y1="267.74"
    x2="887.44" y2="267.51" transform="translate(5.16,2.46)" />
  <line fill="none" stroke="rgb(53,132,228)" stroke-width="24" stroke-linecap="round" x1="911.22" y1="212.45"
    x2="1147.9" y2="213.08" />
  <line fill="none" stroke="#e1e1e1" stroke-width="6" stroke-linecap="square" x1="724.47" y1="219.61" x2="736.93"
    y2="259.72" transform="translate(731.29,240.41) scale(0.95,0.95) translate(-730.70,-239.66)" />
  <line fill="none" stroke="#3584e4" stroke-width="28" stroke-linecap="round" x1="437.95" y1="213.79" x2="712.6"
    y2="211.98" transform="translate(1.92,4.47)" />
  <line fill="none" stroke="#1a5fb4" stroke-width="16" stroke-linecap="round" x1="900.99" y1="361.39" x2="922.67"
    y2="336.13" transform="translate(4.77,-2.53)" />
  <line fill="none" stroke="#1c71d8" stroke-width="16" stroke-linecap="round" x1="901.63" y1="446.71" x2="928.51"
    y2="426.45" transform="translate(0.36,-2.24)" />
  <line fill="none" stroke="#4a7597" stroke-width="16" stroke-linecap="round" x1="251.11" y1="502.63" x2="601.34"
    y2="500.59" />
  <line fill="none" stroke="#1c71d8" stroke-width="28" stroke-linecap="round" x1="930.54" y1="427.87" x2="1142.56"
    y2="428.51" transform="translate(1036.31,428.64) scale(0.86,0.86) scale(1.14,1.14) translate(-1036.55,-428.19)" />
  <line fill="none" stroke="#1a5fb4" stroke-width="20" stroke-linecap="round" x1="925.69" y1="331.69" x2="1150.83"
    y2="331.81" transform="translate(1041.41,333.06) scale(1.07,1.07) scale(0.93,0.93) translate(-1038.26,-331.75)" />
  <rect fill="#999490" stroke="#999490" stroke-width="1" stroke-linecap="round" stroke-linejoin="round" x="997.01"
    y="445.64" width="51.57999999999993" height="5.509999999999991" transform="translate(4.26,-1.54)" />
  <rect fill="#e1e5e9" stroke="#e1e5e9" stroke-width="1" stroke-linecap="round" stroke-linejoin="round" x="938.24"
    y="460.34" width="447.04999999999995" height="111.08999999999997"
    transform="translate(1164.80,516.36) scale(1.01,1.01) scale(1.00,1.00) scale(1.02,1.02) scale(0.96,0.96) scale(0.99,0.99) scale(1.01,1.01) scale(1.01,1.01) scale(1.12,1.12) scale(0.89,0.89) scale(1.03,1.03) translate(-1161.76,-515.89)" />
  <line fill="none" stroke="#4a7597" stroke-width="5" stroke-linecap="square" x1="933.73" y1="459.79" x2="935.29"
    y2="571.43" transform="translate(-0.08,-0.34)" />
  <line fill="none" stroke="#4a7597" stroke-width="20" stroke-linecap="round" x1="939.48" y1="457.23" x2="1589.63"
    y2="458.46" transform="translate(1286.44,464.97) scale(1.07,1.07) translate(-1264.56,-457.84)" />
  <line fill="none" stroke="#999490" stroke-width="40" stroke-linecap="square" x1="581.94" y1="467.87" x2="650.42"
    y2="467.53" transform="translate(35.58,3.87)" />
  <line fill="none" stroke="#999490" stroke-width="40" stroke-linecap="square" x1="1236.72" y1="270.68" x2="1239.87"
    y2="273.64" transform="translate(-637.83,209.43)" />
  <line fill="none" stroke="#999490" stroke-width="24" stroke-linecap="square" x1="1255.4" y1="274.67" x2="1257.79"
    y2="272.2" transform="translate(-678.21,216.79)" />
  <line fill="none" stroke="#4a7597" stroke-width="22" stroke-linecap="round" x1="605.23" y1="500.01" x2="233.55"
    y2="499.69" transform="translate(11.36,0.81)" />
  <line fill="none" stroke="#4a7597" stroke-width="18" stroke-linecap="round" x1="594.33" y1="446.97" x2="700.04"
    y2="446.47" transform="translate(1.21,12.72)" />
  <rect fill="#766f68" stroke="#766f68" stroke-width="18" stroke-linecap="round" stroke-linejoin="round" x="851.06"
    y="540.03" width="82.33000000000004" height="27.24000000000001" />
  <rect fill="#766f68" stroke="#766f68" stroke-width="18" stroke-linecap="round" stroke-linejoin="round" x="707.43"
    y="540.24" width="56.620000000000005" height="24.17999999999995"
    transform="translate(735.74,552.33) scale(1.12,1.12) translate(-735.74,-552.33)" />
  <rect fill="#726852" stroke="#726852" stroke-width="18" stroke-linecap="round" stroke-linejoin="round" x="773.29"
    y="557.6" width="61.940000000000055" height="6.329999999999927" transform="translate(4.54,-1.45)" />
  <line fill="none" stroke="#b47e76" stroke-width="4" stroke-linecap="round" x1="773.24" y1="553.97" x2="844.59"
    y2="554.11" />
  <line fill="none" stroke="#b47e76" stroke-width="4" stroke-linecap="round" x1="770.47" y1="561.01" x2="840.38"
    y2="560.64" />
  <line fill="none" stroke="#b47e76" stroke-width="4" stroke-linecap="round" x1="768.4" y1="567.64" x2="841.2"
    y2="567.81" transform="translate(800.23,568.62) scale(0.94,0.94) translate(-804.80,-567.72)" />
  <rect fill="#a7a296" stroke="#a7a296" stroke-width="4" stroke-linecap="round" stroke-linejoin="round" x="1302.16"
    y="214.33" width="9.389999999999873" height="109.47999999999999"
    transform="translate(6.98,387.16) rotate(214.20) scale(1.00,-1.00) rotate(-214.20) translate(0.00,-109.10) rotate(227.11) scale(1.00,-1.00) rotate(-227.11) translate(245.26,279.16) scale(0.91,0.91) translate(-202.76,-203.27) rotate(228.33) scale(1.00,-1.00) rotate(-228.33) translate(178.40,224.95) scale(0.80,0.80) scale(0.51,0.51) translate(-1316.94,-898.76) rotate(214.63) scale(1.00,-1.00) rotate(-214.63) translate(0.00,644.30)" />
  <rect fill="#a7a296" stroke="#a7a296" stroke-width="4" stroke-linecap="round" stroke-linejoin="round" x="249.02"
    y="571.02" width="1350.78" height="24.050000000000068"
    transform="translate(937.78,583.34) scale(1.34,1.34) translate(471.84,-583.41) rotate(180.00) scale(-1.00,1.00) rotate(-180.00) translate(471.84,583.41) scale(0.81,0.81) scale(1.00,1.00) translate(-924.41,-583.04)" />
  <rect fill="#a7a296" stroke="#a7a296" stroke-width="4" stroke-linecap="round" stroke-linejoin="round" x="212.11"
    y="589.16" width="67.33999999999997" height="7.170000000000073"
    transform="translate(194.36,576.07) scale(1.13,1.13) translate(0.00,0.00) scale(0.85,0.85) translate(-0.00,0.00) scale(1.10,1.10) scale(1.13,1.13) scale(1.00,1.00) translate(-204.43,101.20) rotate(154.37) scale(1.00,-1.00) rotate(-154.37) translate(-1.70,2.33) rotate(153.81) scale(1.00,-1.00) rotate(-153.81) translate(205.28,-105.14) scale(0.75,0.75) translate(0.00,0.00) scale(1.29,1.29) translate(-1280.56,690.41) rotate(151.46) scale(1.00,-1.00) rotate(-151.46) translate(1043.11,-1304.60) rotate(251.95) scale(1.00,-1.00) rotate(-251.95) translate(168.65,625.52) scale(1.42,1.42) translate(-245.78,-592.75)" />
  <rect fill="#a7a296" stroke="#a7a296" stroke-width="4" stroke-linecap="round" stroke-linejoin="round" x="229.71"
    y="583.94" width="46.369999999999976" height="5.3799999999999955"
    transform="translate(230.78,567.22) scale(0.79,0.79) translate(-252.89,-586.63)" />
  <rect fill="#a7a296" stroke="#a7a296" stroke-width="4" stroke-linecap="round" stroke-linejoin="round" x="1475.03"
    y="571.75" width="123.75999999999999" height="24.399999999999977"
    transform="translate(207.11,589.28) scale(1.19,1.19) scale(0.94,0.94) scale(2.29,2.29) scale(0.83,0.83) scale(0.31,0.31) translate(-1536.91,-583.95)" />
  <line fill="none" stroke="rgb(246,211,45)" stroke-width="6" stroke-linecap="round" x1="81.15" y1="594.31" x2="1598.85"
    y2="596.29"
    transform="translate(914.65,597.00) scale(1.31,1.31) scale(0.74,0.74) scale(1.05,1.05) translate(-912.74,-22.14) rotate(180.00) scale(1.00,-1.00) rotate(-180.00) translate(72.74,-617.44)" />
  <rect fill="#766f68" stroke="#766f68" stroke-width="6" stroke-linejoin="bevel" x="136.4" y="557.96" width="71.18"
    height="16.309999999999945" />
  <rect fill="#a7a296" stroke="#a7a296" stroke-width="10" stroke-linecap="square" x="199.55" y="571.57" width="1398.05"
    height="21.239999999999895" />
  <g transform="translate(520,430) scale(0.0160000,-0.0160000)" fill="#0060a0" stroke="none">
    <path d="M4390 8749 c-65 -6 -77 -10 -206 -86 -77 -46 -264 -219 -264 -246 0
-9 6 -20 13 -24 11 -7 178 -187 223 -240 10 -13 23 -23 29 -23 6 0 47 36 91
81 113 115 152 139 232 139 39 0 78 -7 100 -17 21 -9 99 -81 176 -160 76 -79
144 -143 151 -143 12 0 226 221 233 239 3 9 -247 258 -332 330 -26 23 -68 51
-92 62 -24 12 -48 27 -55 35 -6 8 -17 14 -23 14 -6 0 -27 8 -46 19 -40 21
-135 29 -230 20z" />
    <path d="M3647 8282 c-25 -28 -21 -40 30 -95 44 -47 46 -51 28 -61 -11 -6 -32
-24 -47 -40 -24 -24 -28 -37 -28 -82 0 -51 3 -57 45 -99 42 -42 48 -45 99 -45
56 0 58 1 128 77 9 10 28 26 42 36 14 10 26 24 26 30 0 15 -282 297 -297 297
-5 0 -17 -8 -26 -18z m165 -239 c26 -24 23 -67 -7 -87 -32 -21 -44 -20 -72 6
-27 25 -29 40 -7 73 19 29 59 33 86 8z" />
    <path d="M5392 8021 c-44 -41 -44 -95 -1 -182 l31 -63 -21 -17 c-41 -33 -101
13 -101 78 0 37 -16 49 -55 39 -21 -5 -25 -12 -25 -47 0 -89 73 -164 161 -164
41 0 53 5 83 34 47 45 48 90 6 159 -30 50 -35 68 -24 96 15 40 84 1 98 -55 7
-32 23 -40 54 -28 39 15 27 49 -41 117 -75 75 -111 82 -165 33z" />
    <path d="M3492 7928 c-7 -7 -12 -18 -12 -25 0 -7 -18 -24 -40 -38 -49 -31 -60
-51 -60 -112 0 -82 58 -143 137 -143 59 0 87 13 112 54 12 20 34 41 49 48 51
25 42 53 -49 144 -83 83 -111 98 -137 72z m83 -159 c9 -27 -11 -66 -37 -73
-22 -5 -68 9 -68 21 0 5 -3 18 -6 30 -4 16 1 29 21 47 25 24 29 24 55 11 16
-8 32 -24 35 -36z" />
    <path d="M5686 7824 c-9 -24 12 -54 39 -54 30 0 34 29 7 53 -23 21 -38 21 -46
1z" />
    <path d="M3146 7781 c-23 -25 -14 -52 29 -90 43 -37 44 -61 6 -83 -62 -35 -66
-145 -8 -203 60 -60 167 -55 205 10 12 18 34 41 50 49 33 17 44 36 32 56 -17
28 -274 280 -285 280 -7 0 -20 -9 -29 -19z m168 -237 c36 -35 9 -94 -43 -94
-35 0 -51 17 -51 55 0 17 5 36 12 43 17 17 64 15 82 -4z" />
    <path d="M5521 7674 c-50 -47 -91 -94 -91 -103 0 -19 30 -51 46 -51 20 1 184
168 184 188 0 20 -24 52 -39 52 -5 0 -49 -39 -100 -86z" />
    <path d="M5621 7556 c-72 -73 -83 -88 -77 -109 11 -47 41 -43 99 12 66 65 90
72 122 37 14 -15 25 -34 25 -42 0 -9 -25 -41 -55 -73 -30 -32 -55 -65 -55 -73
0 -16 31 -48 46 -48 5 0 38 29 73 64 61 61 65 68 69 120 5 65 -10 96 -57 116
-20 8 -34 22 -38 39 -16 66 -54 55 -152 -43z" />
    <path d="M2898 7539 c-27 -15 -23 -57 7 -71 30 -13 55 3 55 36 0 39 -28 55
-62 35z" />
    <path d="M2997 7432 c-10 -10 -17 -25 -17 -33 0 -8 40 -54 89 -103 72 -72 92
-87 110 -81 11 3 26 16 32 27 10 18 1 31 -82 114 -52 52 -99 94 -105 94 -6 0
-18 -8 -27 -18z" />
    <path d="M2762 7404 c-12 -8 -22 -23 -22 -34 0 -24 234 -259 270 -272 33 -11
83 10 101 43 16 32 -15 62 -57 55 -29 -6 -37 0 -115 80 -46 47 -100 99 -120
114 -33 27 -37 28 -57 14z" />
    <path d="M5915 7336 c-16 -7 -40 -23 -52 -35 -24 -23 -39 -95 -28 -133 9 -29
44 -68 62 -68 22 0 15 -28 -11 -45 -23 -15 -27 -15 -50 1 -15 9 -29 27 -32 39
-12 49 -63 68 -78 29 -18 -48 42 -130 111 -150 63 -18 103 3 220 118 56 56
103 107 103 113 0 16 -31 42 -55 47 -11 2 -21 13 -23 24 -8 55 -104 90 -167
60z m110 -108 c15 -44 -25 -85 -71 -74 -50 13 -51 100 -2 108 31 5 66 -11 73
-34z" />
    <path d="M2639 7276 c-15 -33 4 -58 39 -54 55 7 54 70 -1 76 -21 3 -30 -3 -38
-22z" />
    <path d="M2747 7182 c-10 -10 -17 -23 -17 -28 0 -5 42 -51 93 -102 98 -98 114
-104 136 -55 11 24 7 30 -76 114 -47 49 -94 89 -103 89 -9 0 -24 -8 -33 -18z" />
    <path d="M6149 7083 c-65 -61 -86 -108 -75 -165 7 -37 37 -72 74 -83 14 -4 22
-14 22 -30 0 -13 10 -29 25 -39 25 -17 26 -16 120 75 52 51 95 97 95 104 0 15
-33 45 -49 45 -7 0 -36 -22 -65 -50 -57 -54 -91 -63 -119 -32 -30 33 -21 64
33 117 54 53 64 87 31 105 -28 15 -27 15 -92 -47z" />
    <path d="M2402 7048 c-28 -28 -10 -55 128 -193 151 -151 158 -154 188 -91 8
15 23 31 35 35 12 5 31 19 42 31 29 32 28 128 -1 167 -24 33 -78 62 -116 63
-41 0 -98 -31 -104 -57 -9 -36 -46 -29 -92 17 -40 42 -60 48 -80 28z m328
-131 c0 -45 -13 -60 -51 -60 -59 0 -80 66 -32 101 25 18 30 19 55 6 22 -11 28
-22 28 -47z" />
    <path d="M6487 6913 c-175 -166 -197 -191 -197 -226 0 -9 15 -34 34 -55 l34
-37 22 20 c17 15 21 27 17 52 -5 29 2 39 109 145 63 63 114 119 114 125 0 17
-29 43 -47 43 -8 0 -47 -30 -86 -67z" />
    <path d="M2390 6828 c-8 -13 -18 -31 -22 -40 -4 -10 -14 -18 -22 -18 -8 0 -27
-12 -41 -27 -36 -39 -36 -122 0 -169 66 -87 173 -84 230 6 14 22 31 40 39 40
7 0 21 9 31 20 18 20 17 22 -61 103 -116 121 -126 126 -154 85z m64 -129 c30
-23 33 -54 9 -81 -33 -36 -103 -11 -103 37 0 24 34 65 54 65 7 0 25 -9 40 -21z" />
    <path d="M6522 6680 c-69 -42 -92 -130 -51 -196 11 -19 30 -37 43 -40 12 -3
30 -22 41 -42 11 -20 28 -37 37 -37 24 0 200 173 196 193 -2 9 -20 25 -40 35
-21 10 -38 25 -38 34 0 8 -14 28 -31 44 -39 36 -106 40 -157 9z m110 -77 c10
-9 18 -30 18 -46 0 -54 -65 -77 -101 -34 -24 28 -24 39 2 71 23 30 54 33 81 9z" />
    <path d="M2128 6572 c-37 -24 -67 -65 -74 -99 -4 -23 1 -37 22 -62 26 -31 31
-33 77 -28 27 2 52 9 56 14 12 20 51 25 57 8 8 -20 -22 -49 -59 -59 -28 -7
-36 -36 -18 -65 8 -13 16 -12 51 4 58 26 110 89 110 133 0 71 -80 105 -145 62
-16 -11 -40 -20 -52 -20 -37 0 -28 34 16 63 30 20 38 31 34 47 -7 25 -38 26
-75 2z" />
    <path d="M6742 6397 c-50 -51 -92 -95 -92 -99 0 -15 33 -38 53 -38 13 1 43 22
72 50 59 59 87 64 128 20 34 -35 38 -36 62 -10 26 29 13 68 -31 86 -19 8 -38
22 -41 32 -8 24 -34 52 -47 52 -6 0 -53 -42 -104 -93z" />
    <path d="M7117 6382 c-22 -24 -21 -45 2 -66 16 -15 22 -15 40 -4 30 18 32 33
10 62 -24 31 -31 32 -52 8z" />
    <path d="M1887 6327 c-14 -12 -26 -31 -28 -41 -2 -10 -12 -23 -21 -27 -10 -5
-26 -13 -35 -18 -40 -19 -27 -49 60 -137 90 -92 115 -101 144 -58 13 21 10 26
-41 79 -34 34 -56 66 -56 79 0 24 34 66 53 66 16 0 52 -25 86 -59 52 -52 58
-55 86 -37 14 9 25 23 25 31 0 19 -56 82 -104 117 -52 37 -132 40 -169 5z" />
    <path d="M6929 6203 c-49 -48 -89 -92 -89 -98 0 -16 33 -45 51 -45 8 0 55 40
104 90 84 84 88 90 77 115 -20 43 -48 32 -143 -62z" />
    <path d="M7067 6124 c-37 -20 -77 -86 -77 -128 0 -43 26 -89 62 -111 16 -9 35
-29 43 -46 10 -19 23 -29 38 -29 27 0 297 256 297 282 0 19 -26 48 -43 48 -7
0 -34 -21 -61 -45 -27 -25 -53 -45 -58 -45 -5 0 -13 11 -18 24 -4 13 -21 33
-36 45 -32 25 -105 28 -147 5z m109 -89 c18 -19 23 -31 19 -48 -14 -46 -68
-62 -98 -29 -29 33 -21 77 17 92 31 13 35 12 62 -15z" />
    <path d="M1655 6095 c-49 -27 -64 -45 -81 -99 -16 -49 -15 -53 5 -96 28 -60
73 -90 135 -90 61 0 110 29 136 81 35 67 23 125 -37 182 -38 35 -113 46 -158
22z m107 -92 c24 -28 27 -46 10 -76 -45 -77 -149 -17 -108 62 14 25 23 31 50
31 19 0 39 -7 48 -17z" />
    <path d="M7310 5872 c-14 -9 -30 -22 -37 -28 -16 -15 -43 -82 -43 -105 0 -35
52 -109 77 -109 7 0 21 -16 30 -35 29 -60 45 -56 144 41 101 100 109 121 53
147 -21 10 -39 28 -45 45 -19 56 -124 81 -179 44z m108 -82 c26 -24 28 -47 6
-78 -29 -42 -104 -16 -104 36 0 17 45 62 63 62 7 0 23 -9 35 -20z" />
    <path d="M1398 5839 c-16 -11 -28 -27 -28 -35 0 -7 -18 -25 -39 -40 -22 -14
-42 -32 -45 -40 -7 -17 262 -294 285 -294 21 0 39 20 39 45 0 12 -18 39 -40
60 -45 44 -50 61 -20 70 59 19 81 127 39 190 -45 65 -136 86 -191 44z m110
-79 c12 -12 22 -30 22 -42 0 -49 -61 -76 -94 -42 -24 23 -20 70 6 88 29 21 40
20 66 -4z" />
    <path d="M1191 5635 c-41 -23 -82 -74 -88 -110 -5 -29 -1 -39 25 -65 38 -38
78 -39 133 -4 27 17 45 22 51 16 18 -18 -1 -48 -43 -66 -45 -20 -57 -39 -39
-61 28 -33 102 -1 145 63 32 47 32 83 -1 121 -32 38 -58 39 -120 6 -57 -30
-74 -31 -74 -5 0 13 12 28 30 38 31 17 48 52 35 71 -8 14 -24 13 -54 -4z" />
    <path d="M7529 5591 c-36 -36 -39 -43 -39 -95 0 -69 9 -88 54 -115 19 -12 37
-32 40 -46 4 -15 16 -27 32 -31 22 -6 38 6 127 92 189 184 190 184 174 208
-23 34 -49 30 -92 -14 -46 -48 -68 -50 -91 -11 -22 38 -53 51 -116 51 -45 0
-54 -4 -89 -39z m127 -49 c19 -13 31 -46 25 -71 -15 -56 -111 -43 -111 14 0
44 53 79 86 57z" />
    <path d="M975 5416 c-105 -45 -122 -187 -32 -260 32 -26 48 -31 91 -31 62 0
111 31 152 97 26 40 26 41 6 60 -16 16 -23 18 -41 9 -11 -7 -21 -18 -21 -25 0
-16 -56 -66 -74 -66 -6 0 -17 5 -24 12 -9 9 1 25 43 69 30 32 55 64 55 72 0
33 -63 78 -108 77 -9 -1 -31 -7 -47 -14z m65 -81 c11 -13 10 -21 -7 -43 -27
-36 -57 -36 -61 0 -2 18 4 31 20 42 28 20 32 20 48 1z" />
    <path d="M8051 5243 c-29 -32 -85 -91 -123 -130 l-70 -73 188 -196 c104 -108
206 -210 226 -226 21 -16 63 -68 95 -115 57 -84 57 -86 57 -159 0 -70 -1 -75
-34 -110 -19 -20 -72 -63 -118 -96 -46 -34 -82 -67 -80 -73 3 -11 71 -91 179
-209 36 -39 37 -39 70 -26 65 27 142 85 254 192 103 99 128 156 133 317 3 111
2 117 -29 185 -41 90 -74 138 -176 256 -107 123 -495 520 -509 520 -6 0 -34
-26 -63 -57z" />
    <path d="M652 5260 c-26 -11 -152 -136 -152 -151 0 -14 234 -253 264 -269 23
-12 28 -11 46 10 26 30 26 34 -10 70 -37 38 -37 49 -2 83 32 31 46 33 95 12
51 -21 76 -19 86 8 13 33 -1 50 -62 75 -49 20 -55 27 -60 58 -4 22 -20 49 -42
71 -31 31 -44 37 -88 40 -29 1 -62 -2 -75 -7z m106 -93 c6 -5 12 -24 12 -42 0
-24 -9 -40 -36 -64 -39 -36 -35 -37 -96 22 -24 23 -23 29 10 62 43 43 74 50
110 22z" />
    <path d="M342 4811 c-67 -77 -134 -175 -168 -247 -26 -55 -28 -67 -28 -185 1
-101 4 -131 17 -150 10 -13 17 -34 17 -47 0 -23 115 -147 210 -227 49 -41 172
-125 183 -125 5 0 35 -17 67 -39 32 -21 73 -40 91 -43 39 -7 137 -63 189 -108
19 -17 52 -40 72 -51 44 -23 108 -77 108 -91 0 -5 6 -24 14 -41 8 -18 18 -45
24 -62 7 -24 14 -30 33 -28 13 2 93 9 176 17 84 8 157 17 163 21 14 8 13 36
-4 87 -49 156 -62 187 -87 223 -16 22 -44 50 -62 61 -136 90 -220 142 -337
209 -207 120 -341 212 -447 309 -7 6 -17 36 -23 67 -12 67 2 124 49 192 17 25
31 52 31 59 0 7 -12 27 -28 45 -63 72 -197 213 -203 213 -3 0 -29 -26 -57 -59z" />
    <path d="M7908 3859 c-24 -25 -23 -29 12 -69 16 -19 29 -40 30 -47 0 -18 -46
-105 -70 -130 -17 -19 -27 -22 -65 -16 -42 5 -44 4 -51 -22 -12 -48 8 -56 187
-71 90 -8 177 -17 192 -20 31 -7 67 17 67 46 0 30 -150 239 -228 317 -37 37
-50 39 -74 12z m134 -228 c20 -36 16 -41 -34 -41 -33 0 -38 3 -38 23 0 51 46
63 72 18z" />
    <path d="M7681 3429 c-17 -17 -31 -41 -31 -54 0 -23 -34 -65 -52 -65 -4 0 -8
-11 -8 -25 0 -27 8 -34 124 -94 87 -45 121 -51 131 -22 9 28 -2 45 -42 66 -81
44 -99 76 -73 126 16 28 52 23 117 -16 32 -19 63 -35 69 -35 7 0 19 12 29 26
21 32 13 43 -70 89 -85 48 -149 49 -194 4z" />
    <path d="M1488 3245 c-3 -3 -80 -11 -172 -19 -147 -11 -170 -16 -189 -34 -20
-21 -20 -22 -2 -42 17 -19 26 -20 87 -14 l68 7 0 -60 c0 -70 22 -102 90 -129
36 -15 47 -15 83 -3 80 26 120 94 97 164 -6 19 -9 48 -5 64 8 36 -9 71 -34 71
-10 0 -20 -2 -23 -5z m-26 -118 c17 -26 8 -67 -18 -84 -24 -15 -29 -15 -53 -2
-14 8 -27 23 -29 33 -6 29 7 64 26 69 24 7 65 -2 74 -16z" />
    <path d="M7514 3108 c-29 -34 -47 -75 -41 -92 3 -8 18 -18 32 -22 20 -5 31 0
50 20 28 30 26 30 76 14 36 -10 39 -14 39 -48 0 -25 7 -43 21 -56 20 -18 21
-18 36 1 8 11 18 27 23 35 5 9 22 13 49 12 57 -4 67 21 23 58 -18 15 -32 36
-32 48 0 26 -33 37 -69 22 -22 -9 -36 -7 -75 10 -63 27 -107 26 -132 -2z" />
    <path d="M7501 2897 c-19 -7 -47 -28 -63 -48 -24 -29 -29 -46 -30 -88 0 -44 5
-59 30 -89 25 -32 36 -38 83 -42 30 -3 59 -9 66 -13 16 -10 66 21 92 58 31 45
29 119 -4 167 -14 21 -33 42 -43 47 -31 16 -97 20 -131 8z m103 -93 c37 -37 4
-114 -48 -114 -27 0 -66 42 -66 69 0 48 80 80 114 45z" />
    <path d="M1390 2878 c-95 -16 -100 -18 -100 -34 0 -8 7 -28 15 -43 9 -18 12
-42 8 -65 -12 -78 49 -140 138 -140 62 0 112 34 134 91 14 35 14 46 3 65 -7
13 -13 48 -13 78 l0 55 -65 1 c-36 1 -90 -3 -120 -8z m108 -121 c12 -24 11
-31 -2 -53 -31 -45 -106 -24 -106 31 0 59 83 75 108 22z" />
    <path d="M7343 2554 c-3 -8 -1 -26 5 -40 10 -21 18 -24 69 -24 32 0 68 -3 80
-6 29 -8 48 -55 34 -83 -18 -33 -45 -41 -110 -35 -65 7 -91 -3 -91 -36 0 -35
33 -50 112 -50 116 0 173 37 172 113 0 23 -3 49 -7 58 -5 10 -2 22 7 32 9 9
16 29 16 45 0 37 -20 42 -172 42 -89 0 -110 -3 -115 -16z" />
    <path d="M1343 2534 c-7 -3 -13 -21 -13 -40 0 -36 -12 -45 -73 -59 -25 -5 -28
-10 -25 -38 3 -31 5 -32 51 -35 40 -3 50 -7 59 -28 16 -34 65 -34 78 1 11 28
10 28 93 45 77 16 97 36 97 99 0 28 -5 53 -11 56 -18 12 -59 -4 -59 -24 0 -26
-29 -48 -72 -56 -35 -7 -38 -5 -49 21 -6 16 -14 36 -19 44 -7 16 -36 22 -57
14z" />
    <path d="M1363 2263 c-15 -6 -17 -69 -3 -78 6 -3 10 -30 10 -60 0 -30 4 -57
10 -60 5 -3 62 -3 126 1 96 6 121 11 136 26 18 18 18 22 5 41 -13 20 -22 22
-96 18 -98 -4 -121 9 -121 69 0 45 -25 61 -67 43z" />
    <path d="M7394 2206 c-73 -32 -107 -142 -64 -211 31 -50 75 -75 130 -75 90 0
156 72 148 160 -11 108 -114 169 -214 126z m111 -90 c27 -20 24 -74 -6 -97
-30 -23 -48 -23 -77 1 -29 24 -33 77 -7 96 24 18 66 18 90 0z" />
    <path d="M1409 1969 c-24 -26 -29 -40 -29 -80 0 -100 56 -159 151 -159 107 0
156 61 145 179 -6 71 -18 91 -53 91 -28 0 -41 -25 -25 -51 7 -10 12 -37 12
-59 0 -30 -5 -42 -21 -51 -29 -15 -39 2 -39 63 0 26 -4 58 -10 72 -8 23 -15
26 -56 26 -39 0 -51 -5 -75 -31z m95 -55 c11 -4 16 -19 16 -50 0 -37 -3 -44
-20 -44 -11 0 -27 11 -36 25 -14 21 -15 31 -6 50 12 26 20 29 46 19z" />
    <path d="M7310 1851 c-13 -25 -13 -48 1 -57 6 -3 45 -10 86 -15 79 -9 103 -20
103 -49 0 -31 -24 -39 -116 -42 l-89 -3 -3 -29 c-4 -36 10 -45 73 -47 75 -1
119 -20 123 -52 5 -37 -33 -51 -117 -43 -69 7 -91 -2 -91 -38 0 -39 18 -46
126 -46 96 0 105 2 133 26 36 30 42 78 15 119 -15 23 -15 27 6 60 18 29 21 44
15 80 -4 28 -1 58 6 80 7 19 10 38 6 42 -9 9 -166 31 -224 32 -32 1 -45 -4
-53 -18z" />
    <path d="M1490 1657 c-55 -28 -83 -102 -60 -162 9 -23 7 -27 -16 -35 -14 -6
-45 -10 -69 -10 -49 0 -72 -23 -59 -62 6 -20 10 -21 138 -14 128 7 281 28 294
40 3 4 0 23 -8 44 -7 20 -12 60 -12 87 2 53 -5 67 -52 103 -33 25 -114 30
-156 9z m114 -83 c36 -35 12 -94 -38 -94 -38 0 -58 19 -58 55 0 14 5 32 12 40
16 20 64 19 84 -1z" />
    <path d="M7286 1363 c-12 -13 -6 -71 9 -76 21 -9 241 -10 254 -3 15 10 14 51
-1 63 -14 11 -252 25 -262 16z" />
    <path d="M7616 1345 c-13 -34 23 -135 48 -135 37 0 43 49 14 123 -12 30 -52
38 -62 12z" />
    <path d="M1565 1318 c-98 -13 -120 -20 -123 -43 -6 -51 40 -58 202 -33 82 13
93 21 82 63 -6 22 -11 25 -49 23 -23 0 -73 -5 -112 -10z" />
    <path d="M1306 1279 c-13 -20 -14 -26 -2 -44 17 -26 36 -29 61 -11 16 12 18
19 10 43 -13 36 -47 42 -69 12z" />
    <path d="M7362 1213 c-13 -2 -41 -22 -63 -44 -32 -32 -39 -46 -39 -77 0 -21 5
-43 11 -49 8 -8 6 -18 -6 -36 -10 -16 -14 -34 -10 -50 7 -24 9 -25 135 -32 71
-4 133 -4 140 0 6 4 10 31 9 63 -1 31 2 69 6 83 9 34 -18 93 -55 119 -29 20
-89 31 -128 23z m80 -100 c26 -24 23 -67 -7 -87 -32 -21 -44 -20 -72 6 -28 26
-29 41 -5 73 20 29 58 32 84 8z" />
    <path d="M1691 1181 c-10 -7 -13 -31 -10 -102 l4 -94 -70 -8 c-105 -11 -228
-28 -247 -34 -22 -5 -24 -46 -3 -63 10 -8 35 -11 77 -7 232 20 304 29 312 37
14 14 -4 248 -21 265 -17 17 -23 18 -42 6z" />
    <path d="M7143 787 c-5 -7 -18 -32 -28 -57 -49 -115 -119 -186 -211 -213 -111
-32 -169 -39 -389 -46 l-220 -6 -3 -184 c-1 -105 2 -189 7 -194 12 -12 611 -9
688 3 176 29 299 83 386 172 68 69 153 241 172 348 3 19 11 48 17 63 17 45 21
43 -247 92 -38 7 -77 15 -85 18 -37 13 -79 15 -87 4z" />
    <path d="M1695 760 c-22 -5 -83 -15 -135 -23 -130 -20 -175 -40 -140 -62 6 -3
10 -16 10 -28 0 -46 68 -213 117 -287 43 -65 144 -147 237 -194 147 -74 173
-78 566 -85 190 -3 353 -2 363 2 15 7 17 27 17 206 0 189 -1 199 -19 204 -11
3 -118 6 -237 6 -119 1 -224 6 -233 10 -9 5 -45 11 -81 13 -36 3 -98 15 -139
28 -62 18 -82 30 -123 72 -27 27 -60 72 -74 99 -27 54 -37 57 -129 39z" />
    <path d="M4417 554 c-16 -16 -6 -51 18 -64 32 -17 57 2 53 39 -2 21 -9 27 -33
29 -17 2 -34 0 -38 -4z" />
    <path d="M5577 554 c-12 -13 -8 -51 8 -64 25 -21 67 6 63 39 -2 21 -9 27 -33
29 -17 2 -34 0 -38 -4z" />
    <path d="M3140 541 c-8 -4 -32 -16 -54 -27 -59 -28 -89 -75 -94 -145 -7 -90 4
-125 52 -173 72 -73 203 -86 268 -27 l28 26 -22 28 c-22 27 -24 28 -53 13 -91
-48 -190 7 -190 104 0 55 25 92 78 116 33 15 43 16 70 5 61 -25 82 -25 100 2
15 23 15 26 -4 46 -11 11 -28 21 -39 21 -10 0 -22 5 -25 10 -7 12 -93 12 -115
1z" />
    <path d="M3449 400 c-76 -62 -86 -143 -28 -213 56 -69 159 -73 222 -11 39 39
51 87 38 147 -16 68 -71 107 -150 107 -37 0 -54 -6 -82 -30z m129 -70 c26 -24
29 -72 6 -94 -24 -24 -80 -20 -98 6 -22 31 -20 58 6 85 27 28 57 29 86 3z" />
    <path d="M3762 421 c-10 -6 -14 -40 -13 -132 0 -68 0 -130 0 -137 1 -9 13 -12
39 -10 l37 3 5 85 c5 79 7 85 33 100 24 13 30 13 55 0 25 -15 27 -21 32 -100
l5 -85 40 0 40 0 0 96 c0 88 -2 98 -26 130 -14 19 -43 40 -64 48 -33 12 -41
11 -71 -5 -31 -17 -34 -17 -52 -1 -20 19 -40 21 -60 8z" />
    <path d="M4165 402 c-54 -37 -67 -65 -62 -134 3 -51 7 -61 41 -93 36 -34 59
-40 121 -36 67 5 95 33 74 72 -10 19 -17 21 -60 15 -67 -9 -89 4 -89 53 0 50
33 71 84 53 43 -16 43 -16 61 12 20 30 11 51 -28 71 -46 23 -96 18 -142 -13z" />
    <path d="M4427 417 c-15 -11 -17 -29 -15 -142 l3 -130 35 0 35 0 3 129 c3 127
-3 156 -32 156 -7 0 -20 -6 -29 -13z" />
    <path d="M4605 385 c-42 -42 -45 -48 -45 -99 0 -106 53 -156 167 -156 66 0 95
15 91 48 -3 27 -3 27 -70 24 -59 -4 -67 -2 -78 17 -17 33 -4 41 63 41 100 0
107 4 107 60 0 44 -4 52 -37 79 -32 27 -46 31 -96 31 -55 0 -60 -2 -102 -45z
m130 -35 c20 -7 26 -16 23 -33 -2 -18 -10 -23 -42 -25 -57 -5 -68 2 -55 32 7
14 19 27 28 29 9 3 17 5 18 6 1 0 14 -4 28 -9z" />
    <path d="M4910 410 c-6 -12 -9 -69 -8 -142 l3 -123 28 -3 c46 -5 57 12 57 92
0 39 4 78 9 86 6 8 25 14 46 14 21 0 40 -6 46 -14 5 -8 9 -47 9 -85 0 -42 5
-76 12 -83 15 -15 51 -15 66 0 15 15 16 129 2 180 -18 63 -100 115 -141 89
-23 -14 -66 -15 -74 -1 -11 17 -44 11 -55 -10z" />
    <path d="M5326 407 c-97 -55 -102 -187 -9 -248 36 -24 129 -26 161 -3 28 19
29 60 2 69 -12 4 -39 4 -60 0 -34 -6 -43 -3 -64 20 -24 26 -24 29 -10 56 17
34 49 44 88 29 23 -9 32 -7 47 6 31 28 24 58 -16 77 -48 23 -92 21 -139 -6z" />
    <path d="M5575 408 c-3 -13 -4 -77 -3 -143 l3 -120 35 0 35 0 3 129 c2 113 1
130 -15 142 -27 20 -52 17 -58 -8z" />
    <path d="M5788 409 c-44 -23 -64 -50 -73 -100 -10 -55 10 -113 48 -142 31 -24
41 -25 133 -24 l99 2 3 123 c1 73 -2 130 -8 142 -11 21 -44 27 -55 10 -3 -5
-19 -10 -35 -10 -16 0 -32 5 -35 10 -9 15 -36 11 -77 -11z m100 -85 c46 -32 9
-113 -46 -99 -32 8 -42 21 -42 57 0 26 30 58 55 58 6 0 21 -7 33 -16z" />
  </g>
</svg>