<?xml version="1.0" encoding="UTF-8" standalone="no"?>
<!DOCTYPE svg PUBLIC "-//W3C//DTD SVG 1.1//EN"
 "http://www.w3.org/Graphics/SVG/1.1/DTD/svg11.dtd">
<!-- Generated by graphviz version 2.47.3 (20210619.1520)
 -->
<!-- Title: dependencies Pages: 1 -->
<svg width="3713pt" height="247pt"
 viewBox="0.00 0.00 3713.00 246.80" xmlns="http://www.w3.org/2000/svg" xmlns:xlink="http://www.w3.org/1999/xlink">
<g id="graph0" class="graph" transform="scale(1 1) rotate(0) translate(4 242.8)">
<title>dependencies</title>
<polygon fill="white" stroke="transparent" points="-4,4 -4,-242.8 3709,-242.8 3709,4 -4,4"/>
<text text-anchor="middle" x="1852.5" y="-8.2" font-family="sans-serif" font-size="14.00">dependencies</text>
<g id="clust1" class="cluster">
<title>cluster_SchoolModule</title>
<polygon fill="none" stroke="black" stroke-dasharray="1,5" points="8,-32.8 8,-230.8 3697,-230.8 3697,-32.8 8,-32.8"/>
</g>
<g id="clust2" class="cluster">
<title>cluster_SchoolModule_declarations</title>
<polygon fill="none" stroke="black" points="3354,-40.8 3354,-92.8 3689,-92.8 3689,-40.8 3354,-40.8"/>
</g>
<g id="clust6" class="cluster">
<title>cluster_SchoolModule_exports</title>
<polygon fill="none" stroke="black" points="1968,-170.8 1968,-222.8 2086,-222.8 2086,-170.8 1968,-170.8"/>
</g>
<g id="clust5" class="cluster">
<title>cluster_SchoolModule_imports</title>
<polygon fill="none" stroke="black" points="2908,-40.8 2908,-92.8 3346,-92.8 3346,-40.8 2908,-40.8"/>
</g>
<g id="clust8" class="cluster">
<title>cluster_SchoolModule_providers</title>
<polygon fill="none" stroke="black" points="16,-40.8 16,-92.8 2900,-92.8 2900,-40.8 16,-40.8"/>
</g>
<!-- SchoolComponent -->
<g id="node1" class="node">
<title>SchoolComponent</title>
<polygon fill="#ffffb3" stroke="black" points="3681.22,-84.8 3560.78,-84.8 3560.78,-48.8 3681.22,-48.8 3681.22,-84.8"/>
<text text-anchor="middle" x="3621" y="-62.6" font-family="Times,serif" font-size="14.00">SchoolComponent</text>
</g>
<!-- SchoolModule -->
<g id="node3" class="node">
<title>SchoolModule</title>
<polygon fill="#8dd3c7" stroke="black" points="2076.44,-149.8 2073.44,-153.8 2052.44,-153.8 2049.44,-149.8 1977.56,-149.8 1977.56,-113.8 2076.44,-113.8 2076.44,-149.8"/>
<text text-anchor="middle" x="2027" y="-127.6" font-family="Times,serif" font-size="14.00">SchoolModule</text>
</g>
<!-- SchoolComponent&#45;&gt;SchoolModule -->
<g id="edge1" class="edge">
<title>SchoolComponent&#45;&gt;SchoolModule</title>
<path fill="none" stroke="black" d="M3621,-85.12C3621,-108.46 3621,-145.8 3621,-145.8 3621,-145.8 2086.45,-145.8 2086.45,-145.8"/>
<polygon fill="black" stroke="black" points="2086.45,-142.3 2076.45,-145.8 2086.45,-149.3 2086.45,-142.3"/>
</g>
<!-- SchoolDashboardComponent -->
<g id="node2" class="node">
<title>SchoolDashboardComponent</title>
<polygon fill="#ffffb3" stroke="black" points="3542.36,-84.8 3361.64,-84.8 3361.64,-48.8 3542.36,-48.8 3542.36,-84.8"/>
<text text-anchor="middle" x="3452" y="-62.6" font-family="Times,serif" font-size="14.00">SchoolDashboardComponent</text>
</g>
<!-- SchoolDashboardComponent&#45;&gt;SchoolModule -->
<g id="edge2" class="edge">
<title>SchoolDashboardComponent&#45;&gt;SchoolModule</title>
<path fill="none" stroke="black" d="M3452,-84.96C3452,-107.15 3452,-141.8 3452,-141.8 3452,-141.8 2086.47,-141.8 2086.47,-141.8"/>
<polygon fill="black" stroke="black" points="2086.47,-138.3 2076.47,-141.8 2086.47,-145.3 2086.47,-138.3"/>
</g>
<!-- SharedModule  -->
<g id="node7" class="node">
<title>SharedModule </title>
<polygon fill="#fb8072" stroke="black" points="2077.92,-214.8 1976.08,-214.8 1976.08,-178.8 2077.92,-178.8 2077.92,-214.8"/>
<text text-anchor="middle" x="2027" y="-192.6" font-family="Times,serif" font-size="14.00">SharedModule </text>
</g>
<!-- SchoolModule&#45;&gt;SharedModule  -->
<g id="edge6" class="edge">
<title>SchoolModule&#45;&gt;SharedModule </title>
<path fill="none" stroke="black" stroke-dasharray="5,2" d="M2027,-149.91C2027,-149.91 2027,-168.79 2027,-168.79"/>
<polygon fill="black" stroke="black" points="2023.5,-168.79 2027,-178.79 2030.5,-168.79 2023.5,-168.79"/>
</g>
<!-- SchoolCoursesModule -->
<g id="node4" class="node">
<title>SchoolCoursesModule</title>
<polygon fill="#8dd3c7" stroke="black" points="3337.54,-84.8 3334.54,-88.8 3313.54,-88.8 3310.54,-84.8 3194.46,-84.8 3194.46,-48.8 3337.54,-48.8 3337.54,-84.8"/>
<text text-anchor="middle" x="3266" y="-62.6" font-family="Times,serif" font-size="14.00">SchoolCoursesModule</text>
</g>
<!-- SchoolCoursesModule&#45;&gt;SchoolModule -->
<g id="edge3" class="edge">
<title>SchoolCoursesModule&#45;&gt;SchoolModule</title>
<path fill="none" stroke="black" d="M3266,-85.08C3266,-106.12 3266,-137.8 3266,-137.8 3266,-137.8 2086.33,-137.8 2086.33,-137.8"/>
<polygon fill="black" stroke="black" points="2086.33,-134.3 2076.33,-137.8 2086.33,-141.3 2086.33,-134.3"/>
</g>
<!-- SchoolRoutingModule -->
<g id="node5" class="node">
<title>SchoolRoutingModule</title>
<polygon fill="#8dd3c7" stroke="black" points="3175.56,-84.8 3172.56,-88.8 3151.56,-88.8 3148.56,-84.8 3032.44,-84.8 3032.44,-48.8 3175.56,-48.8 3175.56,-84.8"/>
<text text-anchor="middle" x="3104" y="-62.6" font-family="Times,serif" font-size="14.00">SchoolRoutingModule</text>
</g>
<!-- SchoolRoutingModule&#45;&gt;SchoolModule -->
<g id="edge4" class="edge">
<title>SchoolRoutingModule&#45;&gt;SchoolModule</title>
<path fill="none" stroke="black" d="M3104,-85.11C3104,-104.95 3104,-133.8 3104,-133.8 3104,-133.8 2086.43,-133.8 2086.43,-133.8"/>
<polygon fill="black" stroke="black" points="2086.43,-130.3 2076.43,-133.8 2086.43,-137.3 2086.43,-130.3"/>
</g>
<!-- SharedModule -->
<g id="node6" class="node">
<title>SharedModule</title>
<polygon fill="#8dd3c7" stroke="black" points="3014.42,-84.8 3011.42,-88.8 2990.42,-88.8 2987.42,-84.8 2915.58,-84.8 2915.58,-48.8 3014.42,-48.8 3014.42,-84.8"/>
<text text-anchor="middle" x="2965" y="-62.6" font-family="Times,serif" font-size="14.00">SharedModule</text>
</g>
<!-- SharedModule&#45;&gt;SchoolModule -->
<g id="edge5" class="edge">
<title>SharedModule&#45;&gt;SchoolModule</title>
<path fill="none" stroke="black" d="M2965,-85.02C2965,-103.63 2965,-129.8 2965,-129.8 2965,-129.8 2086.44,-129.8 2086.44,-129.8"/>
<polygon fill="black" stroke="black" points="2086.44,-126.3 2076.44,-129.8 2086.44,-133.3 2086.44,-126.3"/>
</g>
<!-- AccountsDataService -->
<g id="node8" class="node">
<title>AccountsDataService</title>
<ellipse fill="#fdb462" stroke="black" cx="2797" cy="-66.8" rx="94.88" ry="18"/>
<text text-anchor="middle" x="2797" y="-62.6" font-family="Times,serif" font-size="14.00">AccountsDataService</text>
</g>
<!-- AccountsDataService&#45;&gt;SchoolModule -->
<g id="edge7" class="edge">
<title>AccountsDataService&#45;&gt;SchoolModule</title>
<path fill="none" stroke="black" d="M2797,-84.82C2797,-102.17 2797,-125.8 2797,-125.8 2797,-125.8 2086.34,-125.8 2086.34,-125.8"/>
<polygon fill="black" stroke="black" points="2086.34,-122.3 2076.34,-125.8 2086.34,-129.3 2086.34,-122.3"/>
</g>
<!-- AccountsDomainDataService -->
<g id="node9" class="node">
<title>AccountsDomainDataService</title>
<ellipse fill="#fdb462" stroke="black" cx="2559" cy="-66.8" rx="125.6" ry="18"/>
<text text-anchor="middle" x="2559" y="-62.6" font-family="Times,serif" font-size="14.00">AccountsDomainDataService</text>
</g>
<!-- AccountsDomainDataService&#45;&gt;SchoolModule -->
<g id="edge8" class="edge">
<title>AccountsDomainDataService&#45;&gt;SchoolModule</title>
<path fill="none" stroke="black" d="M2559,-84.81C2559,-100.85 2559,-121.8 2559,-121.8 2559,-121.8 2086.57,-121.8 2086.57,-121.8"/>
<polygon fill="black" stroke="black" points="2086.57,-118.3 2076.57,-121.8 2086.57,-125.3 2086.57,-118.3"/>
</g>
<!-- AccountsDomainEntityService -->
<g id="node10" class="node">
<title>AccountsDomainEntityService</title>
<ellipse fill="#fdb462" stroke="black" cx="2284" cy="-66.8" rx="131.36" ry="18"/>
<text text-anchor="middle" x="2284" y="-62.6" font-family="Times,serif" font-size="14.00">AccountsDomainEntityService</text>
</g>
<!-- AccountsDomainEntityService&#45;&gt;SchoolModule -->
<g id="edge9" class="edge">
<title>AccountsDomainEntityService&#45;&gt;SchoolModule</title>
<path fill="none" stroke="black" d="M2284,-84.92C2284,-99.58 2284,-117.8 2284,-117.8 2284,-117.8 2086.25,-117.8 2086.25,-117.8"/>
<polygon fill="black" stroke="black" points="2086.25,-114.3 2076.25,-117.8 2086.25,-121.3 2086.25,-114.3"/>
</g>
<!-- AccountsDomainService -->
<g id="node11" class="node">
<title>AccountsDomainService</title>
<ellipse fill="#fdb462" stroke="black" cx="2027" cy="-66.8" rx="107.64" ry="18"/>
<text text-anchor="middle" x="2027" y="-62.6" font-family="Times,serif" font-size="14.00">AccountsDomainService</text>
</g>
<!-- AccountsDomainService&#45;&gt;SchoolModule -->
<g id="edge10" class="edge">
<title>AccountsDomainService&#45;&gt;SchoolModule</title>
<path fill="none" stroke="black" d="M2027,-84.91C2027,-84.91 2027,-103.79 2027,-103.79"/>
<polygon fill="black" stroke="black" points="2023.5,-103.79 2027,-113.79 2030.5,-103.79 2023.5,-103.79"/>
</g>
<!-- AccountsEntityService -->
<g id="node12" class="node">
<title>AccountsEntityService</title>
<ellipse fill="#fdb462" stroke="black" cx="1801" cy="-66.8" rx="100.14" ry="18"/>
<text text-anchor="middle" x="1801" y="-62.6" font-family="Times,serif" font-size="14.00">AccountsEntityService</text>
</g>
<!-- AccountsEntityService&#45;&gt;SchoolModule -->
<g id="edge11" class="edge">
<title>AccountsEntityService&#45;&gt;SchoolModule</title>
<path fill="none" stroke="black" d="M1801,-84.92C1801,-99.58 1801,-117.8 1801,-117.8 1801,-117.8 1967.68,-117.8 1967.68,-117.8"/>
<polygon fill="black" stroke="black" points="1967.68,-121.3 1977.68,-117.8 1967.68,-114.3 1967.68,-121.3"/>
</g>
<!-- AccountsService -->
<g id="node13" class="node">
<title>AccountsService</title>
<ellipse fill="#fdb462" stroke="black" cx="1606" cy="-66.8" rx="76.42" ry="18"/>
<text text-anchor="middle" x="1606" y="-62.6" font-family="Times,serif" font-size="14.00">AccountsService</text>
</g>
<!-- AccountsService&#45;&gt;SchoolModule -->
<g id="edge12" class="edge">
<title>AccountsService&#45;&gt;SchoolModule</title>
<path fill="none" stroke="black" d="M1606,-84.81C1606,-100.85 1606,-121.8 1606,-121.8 1606,-121.8 1967.47,-121.8 1967.47,-121.8"/>
<polygon fill="black" stroke="black" points="1967.47,-125.3 1977.47,-121.8 1967.47,-118.3 1967.47,-125.3"/>
</g>
<!-- AssignedCoursesDataService -->
<g id="node14" class="node">
<title>AssignedCoursesDataService</title>
<ellipse fill="#fdb462" stroke="black" cx="1386" cy="-66.8" rx="125.04" ry="18"/>
<text text-anchor="middle" x="1386" y="-62.6" font-family="Times,serif" font-size="14.00">AssignedCoursesDataService</text>
</g>
<!-- AssignedCoursesDataService&#45;&gt;SchoolModule -->
<g id="edge13" class="edge">
<title>AssignedCoursesDataService&#45;&gt;SchoolModule</title>
<path fill="none" stroke="black" d="M1386,-84.82C1386,-102.17 1386,-125.8 1386,-125.8 1386,-125.8 1967.77,-125.8 1967.77,-125.8"/>
<polygon fill="black" stroke="black" points="1967.77,-129.3 1977.77,-125.8 1967.77,-122.3 1967.77,-129.3"/>
</g>
<!-- AssignedCoursesEntityService -->
<g id="node15" class="node">
<title>AssignedCoursesEntityService</title>
<ellipse fill="#fdb462" stroke="black" cx="1112" cy="-66.8" rx="130.8" ry="18"/>
<text text-anchor="middle" x="1112" y="-62.6" font-family="Times,serif" font-size="14.00">AssignedCoursesEntityService</text>
</g>
<!-- AssignedCoursesEntityService&#45;&gt;SchoolModule -->
<g id="edge14" class="edge">
<title>AssignedCoursesEntityService&#45;&gt;SchoolModule</title>
<path fill="none" stroke="black" d="M1112,-85.02C1112,-103.63 1112,-129.8 1112,-129.8 1112,-129.8 1967.48,-129.8 1967.48,-129.8"/>
<polygon fill="black" stroke="black" points="1967.48,-133.3 1977.48,-129.8 1967.48,-126.3 1967.48,-133.3"/>
</g>
<!-- AssignedCoursesService -->
<g id="node16" class="node">
<title>AssignedCoursesService</title>
<ellipse fill="#fdb462" stroke="black" cx="856" cy="-66.8" rx="107.08" ry="18"/>
<text text-anchor="middle" x="856" y="-62.6" font-family="Times,serif" font-size="14.00">AssignedCoursesService</text>
</g>
<!-- AssignedCoursesService&#45;&gt;SchoolModule -->
<g id="edge15" class="edge">
<title>AssignedCoursesService&#45;&gt;SchoolModule</title>
<path fill="none" stroke="black" d="M856,-85.11C856,-104.95 856,-133.8 856,-133.8 856,-133.8 1967.43,-133.8 1967.43,-133.8"/>
<polygon fill="black" stroke="black" points="1967.43,-137.3 1977.43,-133.8 1967.43,-130.3 1967.43,-137.3"/>
</g>
<!-- SchoolCoursesDataService -->
<g id="node17" class="node">
<title>SchoolCoursesDataService</title>
<ellipse fill="#fdb462" stroke="black" cx="615" cy="-66.8" rx="116.31" ry="18"/>
<text text-anchor="middle" x="615" y="-62.6" font-family="Times,serif" font-size="14.00">SchoolCoursesDataService</text>
</g>
<!-- SchoolCoursesDataService&#45;&gt;SchoolModule -->
<g id="edge16" class="edge">
<title>SchoolCoursesDataService&#45;&gt;SchoolModule</title>
<path fill="none" stroke="black" d="M615,-85.08C615,-106.12 615,-137.8 615,-137.8 615,-137.8 1967.57,-137.8 1967.57,-137.8"/>
<polygon fill="black" stroke="black" points="1967.57,-141.3 1977.57,-137.8 1967.57,-134.3 1967.57,-141.3"/>
</g>
<!-- SchoolCoursesEntityService -->
<g id="node18" class="node">
<title>SchoolCoursesEntityService</title>
<ellipse fill="#fdb462" stroke="black" cx="359" cy="-66.8" rx="121.57" ry="18"/>
<text text-anchor="middle" x="359" y="-62.6" font-family="Times,serif" font-size="14.00">SchoolCoursesEntityService</text>
</g>
<!-- SchoolCoursesEntityService&#45;&gt;SchoolModule -->
<g id="edge17" class="edge">
<title>SchoolCoursesEntityService&#45;&gt;SchoolModule</title>
<path fill="none" stroke="black" d="M359,-84.96C359,-107.15 359,-141.8 359,-141.8 359,-141.8 1967.53,-141.8 1967.53,-141.8"/>
<polygon fill="black" stroke="black" points="1967.53,-145.3 1977.53,-141.8 1967.53,-138.3 1967.53,-145.3"/>
</g>
<!-- SchoolCoursesService -->
<g id="node19" class="node">
<title>SchoolCoursesService</title>
<ellipse fill="#fdb462" stroke="black" cx="122" cy="-66.8" rx="97.85" ry="18"/>
<text text-anchor="middle" x="122" y="-62.6" font-family="Times,serif" font-size="14.00">SchoolCoursesService</text>
</g>
<!-- SchoolCoursesService&#45;&gt;SchoolModule -->
<g id="edge18" class="edge">
<title>SchoolCoursesService&#45;&gt;SchoolModule</title>
<path fill="none" stroke="black" d="M122,-85.12C122,-108.46 122,-145.8 122,-145.8 122,-145.8 1967.51,-145.8 1967.51,-145.8"/>
<polygon fill="black" stroke="black" points="1967.51,-149.3 1977.51,-145.8 1967.51,-142.3 1967.51,-149.3"/>
</g>
</g>
</svg>
