<?xml version="1.0" encoding="UTF-8" standalone="no"?>
<!DOCTYPE svg PUBLIC "-//W3C//DTD SVG 1.1//EN"
 "http://www.w3.org/Graphics/SVG/1.1/DTD/svg11.dtd">
<!-- Generated by graphviz version 2.47.3 (20210619.1520)
 -->
<!-- Title: dependencies Pages: 1 -->
<svg width="1166pt" height="174pt"
 viewBox="0.00 0.00 1166.00 173.80" xmlns="http://www.w3.org/2000/svg" xmlns:xlink="http://www.w3.org/1999/xlink">
<g id="graph0" class="graph" transform="scale(1 1) rotate(0) translate(4 169.8)">
<title>dependencies</title>
<polygon fill="white" stroke="transparent" points="-4,4 -4,-169.8 1162,-169.8 1162,4 -4,4"/>
<text text-anchor="middle" x="579" y="-8.2" font-family="sans-serif" font-size="14.00">dependencies</text>
<g id="clust1" class="cluster">
<title>cluster_CoreModule</title>
<polygon fill="none" stroke="black" stroke-dasharray="1,5" points="8,-32.8 8,-157.8 1150,-157.8 1150,-32.8 8,-32.8"/>
</g>
<g id="clust2" class="cluster">
<title>cluster_CoreModule_declarations</title>
<polygon fill="none" stroke="black" points="448,-40.8 448,-92.8 1142,-92.8 1142,-40.8 448,-40.8"/>
</g>
<g id="clust8" class="cluster">
<title>cluster_CoreModule_imports</title>
<polygon fill="none" stroke="black" points="326,-40.8 326,-92.8 440,-92.8 440,-40.8 326,-40.8"/>
</g>
<g id="clust11" class="cluster">
<title>cluster_CoreModule_providers</title>
<polygon fill="none" stroke="black" points="16,-40.8 16,-92.8 318,-92.8 318,-40.8 16,-40.8"/>
</g>
<!-- HeaderComponent -->
<g id="node1" class="node">
<title>HeaderComponent</title>
<polygon fill="#ffffb3" stroke="black" points="1133.74,-84.8 1012.26,-84.8 1012.26,-48.8 1133.74,-48.8 1133.74,-84.8"/>
<text text-anchor="middle" x="1073" y="-62.6" font-family="Times,serif" font-size="14.00">HeaderComponent</text>
</g>
<!-- CoreModule -->
<g id="node6" class="node">
<title>CoreModule</title>
<polygon fill="#8dd3c7" stroke="black" points="634.26,-149.8 631.26,-153.8 610.26,-153.8 607.26,-149.8 547.74,-149.8 547.74,-113.8 634.26,-113.8 634.26,-149.8"/>
<text text-anchor="middle" x="591" y="-127.6" font-family="Times,serif" font-size="14.00">CoreModule</text>
</g>
<!-- HeaderComponent&#45;&gt;CoreModule -->
<g id="edge1" class="edge">
<title>HeaderComponent&#45;&gt;CoreModule</title>
<path fill="none" stroke="black" d="M1073,-85.09C1073,-107.01 1073,-140.8 1073,-140.8 1073,-140.8 644.62,-140.8 644.62,-140.8"/>
<polygon fill="black" stroke="black" points="644.62,-137.3 634.62,-140.8 644.62,-144.3 644.62,-137.3"/>
</g>
<!-- LayoutComponent -->
<g id="node2" class="node">
<title>LayoutComponent</title>
<polygon fill="#ffffb3" stroke="black" points="994.49,-84.8 873.51,-84.8 873.51,-48.8 994.49,-48.8 994.49,-84.8"/>
<text text-anchor="middle" x="934" y="-62.6" font-family="Times,serif" font-size="14.00">LayoutComponent</text>
</g>
<!-- LayoutComponent&#45;&gt;CoreModule -->
<g id="edge2" class="edge">
<title>LayoutComponent&#45;&gt;CoreModule</title>
<path fill="none" stroke="black" d="M934,-84.91C934,-104.14 934,-131.8 934,-131.8 934,-131.8 644.44,-131.8 644.44,-131.8"/>
<polygon fill="black" stroke="black" points="644.44,-128.3 634.44,-131.8 644.44,-135.3 644.44,-128.3"/>
</g>
<!-- MainComponent -->
<g id="node3" class="node">
<title>MainComponent</title>
<polygon fill="#ffffb3" stroke="black" points="855.38,-84.8 744.62,-84.8 744.62,-48.8 855.38,-48.8 855.38,-84.8"/>
<text text-anchor="middle" x="800" y="-62.6" font-family="Times,serif" font-size="14.00">MainComponent</text>
</g>
<!-- MainComponent&#45;&gt;CoreModule -->
<g id="edge3" class="edge">
<title>MainComponent&#45;&gt;CoreModule</title>
<path fill="none" stroke="black" d="M800,-84.83C800,-101.2 800,-122.8 800,-122.8 800,-122.8 644.3,-122.8 644.3,-122.8"/>
<polygon fill="black" stroke="black" points="644.3,-119.3 634.3,-122.8 644.3,-126.3 644.3,-119.3"/>
</g>
<!-- SettingsComponent -->
<g id="node4" class="node">
<title>SettingsComponent</title>
<polygon fill="#ffffb3" stroke="black" points="726.45,-84.8 599.55,-84.8 599.55,-48.8 726.45,-48.8 726.45,-84.8"/>
<text text-anchor="middle" x="663" y="-62.6" font-family="Times,serif" font-size="14.00">SettingsComponent</text>
</g>
<!-- SettingsComponent&#45;&gt;CoreModule -->
<g id="edge4" class="edge">
<title>SettingsComponent&#45;&gt;CoreModule</title>
<path fill="none" stroke="black" d="M617.08,-84.91C617.08,-84.91 617.08,-103.79 617.08,-103.79"/>
<polygon fill="black" stroke="black" points="613.58,-103.79 617.08,-113.79 620.58,-103.79 613.58,-103.79"/>
</g>
<!-- SidenavComponent -->
<g id="node5" class="node">
<title>SidenavComponent</title>
<polygon fill="#ffffb3" stroke="black" points="582.44,-84.8 455.56,-84.8 455.56,-48.8 582.44,-48.8 582.44,-84.8"/>
<text text-anchor="middle" x="519" y="-62.6" font-family="Times,serif" font-size="14.00">SidenavComponent</text>
</g>
<!-- SidenavComponent&#45;&gt;CoreModule -->
<g id="edge5" class="edge">
<title>SidenavComponent&#45;&gt;CoreModule</title>
<path fill="none" stroke="black" d="M564.92,-84.91C564.92,-84.91 564.92,-103.79 564.92,-103.79"/>
<polygon fill="black" stroke="black" points="561.42,-103.79 564.92,-113.79 568.42,-103.79 561.42,-103.79"/>
</g>
<!-- SharedModule -->
<g id="node7" class="node">
<title>SharedModule</title>
<polygon fill="#8dd3c7" stroke="black" points="432.42,-84.8 429.42,-88.8 408.42,-88.8 405.42,-84.8 333.58,-84.8 333.58,-48.8 432.42,-48.8 432.42,-84.8"/>
<text text-anchor="middle" x="383" y="-62.6" font-family="Times,serif" font-size="14.00">SharedModule</text>
</g>
<!-- SharedModule&#45;&gt;CoreModule -->
<g id="edge6" class="edge">
<title>SharedModule&#45;&gt;CoreModule</title>
<path fill="none" stroke="black" d="M383,-84.83C383,-101.2 383,-122.8 383,-122.8 383,-122.8 537.65,-122.8 537.65,-122.8"/>
<polygon fill="black" stroke="black" points="537.65,-126.3 547.65,-122.8 537.65,-119.3 537.65,-126.3"/>
</g>
<!-- LayoutService -->
<g id="node8" class="node">
<title>LayoutService</title>
<ellipse fill="#fdb462" stroke="black" cx="243" cy="-66.8" rx="67.19" ry="18"/>
<text text-anchor="middle" x="243" y="-62.6" font-family="Times,serif" font-size="14.00">LayoutService</text>
</g>
<!-- LayoutService&#45;&gt;CoreModule -->
<g id="edge7" class="edge">
<title>LayoutService&#45;&gt;CoreModule</title>
<path fill="none" stroke="black" d="M243,-84.91C243,-104.14 243,-131.8 243,-131.8 243,-131.8 537.63,-131.8 537.63,-131.8"/>
<polygon fill="black" stroke="black" points="537.63,-135.3 547.63,-131.8 537.63,-128.3 537.63,-135.3"/>
</g>
<!-- ThemeService -->
<g id="node9" class="node">
<title>ThemeService</title>
<ellipse fill="#fdb462" stroke="black" cx="91" cy="-66.8" rx="66.61" ry="18"/>
<text text-anchor="middle" x="91" y="-62.6" font-family="Times,serif" font-size="14.00">ThemeService</text>
</g>
<!-- ThemeService&#45;&gt;CoreModule -->
<g id="edge8" class="edge">
<title>ThemeService&#45;&gt;CoreModule</title>
<path fill="none" stroke="black" d="M91,-85.09C91,-107.01 91,-140.8 91,-140.8 91,-140.8 537.5,-140.8 537.5,-140.8"/>
<polygon fill="black" stroke="black" points="537.5,-144.3 547.5,-140.8 537.5,-137.3 537.5,-144.3"/>
</g>
</g>
</svg>
