<?xml version="1.0" encoding="UTF-8" standalone="no"?>
<!DOCTYPE svg PUBLIC "-//W3C//DTD SVG 1.1//EN"
 "http://www.w3.org/Graphics/SVG/1.1/DTD/svg11.dtd">
<!-- Generated by graphviz version 2.47.3 (20210619.1520)
 -->
<!-- Title: dependencies Pages: 1 -->
<svg width="158pt" height="174pt"
 viewBox="0.00 0.00 158.00 173.80" xmlns="http://www.w3.org/2000/svg" xmlns:xlink="http://www.w3.org/1999/xlink">
<g id="graph0" class="graph" transform="scale(1 1) rotate(0) translate(4 169.8)">
<title>dependencies</title>
<polygon fill="white" stroke="transparent" points="-4,4 -4,-169.8 154,-169.8 154,4 -4,4"/>
<text text-anchor="middle" x="75" y="-8.2" font-family="sans-serif" font-size="14.00">dependencies</text>
<g id="clust1" class="cluster">
<title>cluster_NgrxStoreModule</title>
<polygon fill="none" stroke="black" stroke-dasharray="1,5" points="8,-32.8 8,-157.8 142,-157.8 142,-32.8 8,-32.8"/>
</g>
<g id="clust3" class="cluster">
<title>cluster_NgrxStoreModule_imports</title>
<polygon fill="none" stroke="black" points="21,-40.8 21,-92.8 129,-92.8 129,-40.8 21,-40.8"/>
</g>
<!-- !environment -->
<g id="node1" class="node">
<title>!environment</title>
<polygon fill="#8dd3c7" stroke="black" points="120.92,-84.8 117.92,-88.8 96.92,-88.8 93.92,-84.8 29.08,-84.8 29.08,-48.8 120.92,-48.8 120.92,-84.8"/>
<text text-anchor="middle" x="75" y="-62.6" font-family="Times,serif" font-size="14.00">!environment</text>
</g>
<!-- NgrxStoreModule -->
<g id="node2" class="node">
<title>NgrxStoreModule</title>
<polygon fill="#8dd3c7" stroke="black" points="133.87,-149.8 130.87,-153.8 109.87,-153.8 106.87,-149.8 16.13,-149.8 16.13,-113.8 133.87,-113.8 133.87,-149.8"/>
<text text-anchor="middle" x="75" y="-127.6" font-family="Times,serif" font-size="14.00">NgrxStoreModule</text>
</g>
<!-- !environment&#45;&gt;NgrxStoreModule -->
<g id="edge1" class="edge">
<title>!environment&#45;&gt;NgrxStoreModule</title>
<path fill="none" stroke="black" d="M75,-84.91C75,-84.91 75,-103.79 75,-103.79"/>
<polygon fill="black" stroke="black" points="71.5,-103.79 75,-113.79 78.5,-103.79 71.5,-103.79"/>
</g>
</g>
</svg>
