<?xml version="1.0" encoding="UTF-8" standalone="no"?>
<!DOCTYPE svg PUBLIC "-//W3C//DTD SVG 1.1//EN"
 "http://www.w3.org/Graphics/SVG/1.1/DTD/svg11.dtd">
<!-- Generated by graphviz version 2.47.3 (20210619.1520)
 -->
<!-- Title: dependencies Pages: 1 -->
<svg width="1800pt" height="247pt"
 viewBox="0.00 0.00 1800.00 246.80" xmlns="http://www.w3.org/2000/svg" xmlns:xlink="http://www.w3.org/1999/xlink">
<g id="graph0" class="graph" transform="scale(1 1) rotate(0) translate(4 242.8)">
<title>dependencies</title>
<polygon fill="white" stroke="transparent" points="-4,4 -4,-242.8 1796,-242.8 1796,4 -4,4"/>
<text text-anchor="middle" x="896" y="-8.2" font-family="sans-serif" font-size="14.00">dependencies</text>
<g id="clust1" class="cluster">
<title>cluster_AnnouncementsModule</title>
<polygon fill="none" stroke="black" stroke-dasharray="1,5" points="8,-32.8 8,-230.8 1784,-230.8 1784,-32.8 8,-32.8"/>
</g>
<g id="clust7" class="cluster">
<title>cluster_AnnouncementsModule_exports</title>
<polygon fill="none" stroke="black" points="495,-170.8 495,-222.8 1177,-222.8 1177,-170.8 495,-170.8"/>
</g>
<g id="clust9" class="cluster">
<title>cluster_AnnouncementsModule_providers</title>
<polygon fill="none" stroke="black" points="1039,-40.8 1039,-92.8 1776,-92.8 1776,-40.8 1039,-40.8"/>
</g>
<g id="clust6" class="cluster">
<title>cluster_AnnouncementsModule_imports</title>
<polygon fill="none" stroke="black" points="695,-40.8 695,-92.8 1031,-92.8 1031,-40.8 695,-40.8"/>
</g>
<g id="clust2" class="cluster">
<title>cluster_AnnouncementsModule_declarations</title>
<polygon fill="none" stroke="black" points="16,-40.8 16,-92.8 687,-92.8 687,-40.8 16,-40.8"/>
</g>
<!-- AnnouncementDialogComponent -->
<g id="node1" class="node">
<title>AnnouncementDialogComponent</title>
<polygon fill="#ffffb3" stroke="black" points="679.47,-84.8 474.53,-84.8 474.53,-48.8 679.47,-48.8 679.47,-84.8"/>
<text text-anchor="middle" x="577" y="-62.6" font-family="Times,serif" font-size="14.00">AnnouncementDialogComponent</text>
</g>
<!-- AnnouncementsModule -->
<g id="node4" class="node">
<title>AnnouncementsModule</title>
<polygon fill="#8dd3c7" stroke="black" points="915.03,-149.8 912.03,-153.8 891.03,-153.8 888.03,-149.8 764.97,-149.8 764.97,-113.8 915.03,-113.8 915.03,-149.8"/>
<text text-anchor="middle" x="840" y="-127.6" font-family="Times,serif" font-size="14.00">AnnouncementsModule</text>
</g>
<!-- AnnouncementDialogComponent&#45;&gt;AnnouncementsModule -->
<g id="edge1" class="edge">
<title>AnnouncementDialogComponent&#45;&gt;AnnouncementsModule</title>
<path fill="none" stroke="black" d="M591.38,-84.81C591.38,-100.85 591.38,-121.8 591.38,-121.8 591.38,-121.8 754.73,-121.8 754.73,-121.8"/>
<polygon fill="black" stroke="black" points="754.73,-125.3 764.73,-121.8 754.73,-118.3 754.73,-125.3"/>
</g>
<!-- AnnouncementResultComponent -->
<g id="node2" class="node">
<title>AnnouncementResultComponent</title>
<polygon fill="#ffffb3" stroke="black" points="456.14,-84.8 253.86,-84.8 253.86,-48.8 456.14,-48.8 456.14,-84.8"/>
<text text-anchor="middle" x="355" y="-62.6" font-family="Times,serif" font-size="14.00">AnnouncementResultComponent</text>
</g>
<!-- AnnouncementResultComponent&#45;&gt;AnnouncementsModule -->
<g id="edge2" class="edge">
<title>AnnouncementResultComponent&#45;&gt;AnnouncementsModule</title>
<path fill="none" stroke="black" d="M355,-85.07C355,-103.36 355,-128.8 355,-128.8 355,-128.8 754.75,-128.8 754.75,-128.8"/>
<polygon fill="black" stroke="black" points="754.75,-132.3 764.75,-128.8 754.75,-125.3 754.75,-132.3"/>
</g>
<!-- CourseAnnouncementsComponent -->
<g id="node3" class="node">
<title>CourseAnnouncementsComponent</title>
<polygon fill="#ffffb3" stroke="black" points="235.97,-84.8 24.03,-84.8 24.03,-48.8 235.97,-48.8 235.97,-84.8"/>
<text text-anchor="middle" x="130" y="-62.6" font-family="Times,serif" font-size="14.00">CourseAnnouncementsComponent</text>
</g>
<!-- CourseAnnouncementsComponent&#45;&gt;AnnouncementsModule -->
<g id="edge3" class="edge">
<title>CourseAnnouncementsComponent&#45;&gt;AnnouncementsModule</title>
<path fill="none" stroke="black" d="M130,-84.93C130,-105.37 130,-135.8 130,-135.8 130,-135.8 754.69,-135.8 754.69,-135.8"/>
<polygon fill="black" stroke="black" points="754.69,-139.3 764.69,-135.8 754.69,-132.3 754.69,-139.3"/>
</g>
<!-- AnnouncementDialogComponent  -->
<g id="node7" class="node">
<title>AnnouncementDialogComponent </title>
<polygon fill="#fb8072" stroke="black" points="1169.47,-214.8 960.53,-214.8 960.53,-178.8 1169.47,-178.8 1169.47,-214.8"/>
<text text-anchor="middle" x="1065" y="-192.6" font-family="Times,serif" font-size="14.00">AnnouncementDialogComponent </text>
</g>
<!-- AnnouncementsModule&#45;&gt;AnnouncementDialogComponent  -->
<g id="edge6" class="edge">
<title>AnnouncementsModule&#45;&gt;AnnouncementDialogComponent </title>
<path fill="none" stroke="black" stroke-dasharray="5,2" d="M915.45,-142.8C953.55,-142.8 991.79,-142.8 991.79,-142.8 991.79,-142.8 991.79,-168.52 991.79,-168.52"/>
<polygon fill="black" stroke="black" points="988.29,-168.52 991.79,-178.52 995.29,-168.52 988.29,-168.52"/>
</g>
<!-- AnnouncementResultComponent  -->
<g id="node8" class="node">
<title>AnnouncementResultComponent </title>
<polygon fill="#fb8072" stroke="black" points="943.14,-214.8 736.86,-214.8 736.86,-178.8 943.14,-178.8 943.14,-214.8"/>
<text text-anchor="middle" x="840" y="-192.6" font-family="Times,serif" font-size="14.00">AnnouncementResultComponent </text>
</g>
<!-- AnnouncementsModule&#45;&gt;AnnouncementResultComponent  -->
<g id="edge7" class="edge">
<title>AnnouncementsModule&#45;&gt;AnnouncementResultComponent </title>
<path fill="none" stroke="black" stroke-dasharray="5,2" d="M840,-149.91C840,-149.91 840,-168.79 840,-168.79"/>
<polygon fill="black" stroke="black" points="836.5,-168.79 840,-178.79 843.5,-168.79 836.5,-168.79"/>
</g>
<!-- CourseAnnouncementsComponent  -->
<g id="node9" class="node">
<title>CourseAnnouncementsComponent </title>
<polygon fill="#fb8072" stroke="black" points="718.97,-214.8 503.03,-214.8 503.03,-178.8 718.97,-178.8 718.97,-214.8"/>
<text text-anchor="middle" x="611" y="-192.6" font-family="Times,serif" font-size="14.00">CourseAnnouncementsComponent </text>
</g>
<!-- AnnouncementsModule&#45;&gt;CourseAnnouncementsComponent  -->
<g id="edge8" class="edge">
<title>AnnouncementsModule&#45;&gt;CourseAnnouncementsComponent </title>
<path fill="none" stroke="black" stroke-dasharray="5,2" d="M764.74,-142.8C736.28,-142.8 710.62,-142.8 710.62,-142.8 710.62,-142.8 710.62,-168.52 710.62,-168.52"/>
<polygon fill="black" stroke="black" points="707.12,-168.52 710.62,-178.52 714.12,-168.52 707.12,-168.52"/>
</g>
<!-- AnnouncementsRoutingModule -->
<g id="node5" class="node">
<title>AnnouncementsRoutingModule</title>
<polygon fill="#8dd3c7" stroke="black" points="1022.64,-84.8 1019.64,-88.8 998.64,-88.8 995.64,-84.8 827.36,-84.8 827.36,-48.8 1022.64,-48.8 1022.64,-84.8"/>
<text text-anchor="middle" x="925" y="-62.6" font-family="Times,serif" font-size="14.00">AnnouncementsRoutingModule</text>
</g>
<!-- AnnouncementsRoutingModule&#45;&gt;AnnouncementsModule -->
<g id="edge4" class="edge">
<title>AnnouncementsRoutingModule&#45;&gt;AnnouncementsModule</title>
<path fill="none" stroke="black" d="M871.22,-84.91C871.22,-84.91 871.22,-103.79 871.22,-103.79"/>
<polygon fill="black" stroke="black" points="867.72,-103.79 871.22,-113.79 874.72,-103.79 867.72,-103.79"/>
</g>
<!-- MaterialModule -->
<g id="node6" class="node">
<title>MaterialModule</title>
<polygon fill="#8dd3c7" stroke="black" points="809.47,-84.8 806.47,-88.8 785.47,-88.8 782.47,-84.8 702.53,-84.8 702.53,-48.8 809.47,-48.8 809.47,-84.8"/>
<text text-anchor="middle" x="756" y="-62.6" font-family="Times,serif" font-size="14.00">MaterialModule</text>
</g>
<!-- MaterialModule&#45;&gt;AnnouncementsModule -->
<g id="edge5" class="edge">
<title>MaterialModule&#45;&gt;AnnouncementsModule</title>
<path fill="none" stroke="black" d="M787.11,-84.91C787.11,-84.91 787.11,-103.79 787.11,-103.79"/>
<polygon fill="black" stroke="black" points="783.61,-103.79 787.11,-113.79 790.61,-103.79 783.61,-103.79"/>
</g>
<!-- AnnouncementDataService -->
<g id="node10" class="node">
<title>AnnouncementDataService</title>
<ellipse fill="#fdb462" stroke="black" cx="1651" cy="-66.8" rx="117.44" ry="18"/>
<text text-anchor="middle" x="1651" y="-62.6" font-family="Times,serif" font-size="14.00">AnnouncementDataService</text>
</g>
<!-- AnnouncementDataService&#45;&gt;AnnouncementsModule -->
<g id="edge9" class="edge">
<title>AnnouncementDataService&#45;&gt;AnnouncementsModule</title>
<path fill="none" stroke="black" d="M1651,-84.93C1651,-105.37 1651,-135.8 1651,-135.8 1651,-135.8 925.21,-135.8 925.21,-135.8"/>
<polygon fill="black" stroke="black" points="925.21,-132.3 915.21,-135.8 925.21,-139.3 925.21,-132.3"/>
</g>
<!-- AnnouncementEntityService -->
<g id="node11" class="node">
<title>AnnouncementEntityService</title>
<ellipse fill="#fdb462" stroke="black" cx="1393" cy="-66.8" rx="122.69" ry="18"/>
<text text-anchor="middle" x="1393" y="-62.6" font-family="Times,serif" font-size="14.00">AnnouncementEntityService</text>
</g>
<!-- AnnouncementEntityService&#45;&gt;AnnouncementsModule -->
<g id="edge10" class="edge">
<title>AnnouncementEntityService&#45;&gt;AnnouncementsModule</title>
<path fill="none" stroke="black" d="M1393,-85.07C1393,-103.36 1393,-128.8 1393,-128.8 1393,-128.8 925.16,-128.8 925.16,-128.8"/>
<polygon fill="black" stroke="black" points="925.16,-125.3 915.16,-128.8 925.16,-132.3 925.16,-125.3"/>
</g>
<!-- AnnouncementsService -->
<g id="node12" class="node">
<title>AnnouncementsService</title>
<ellipse fill="#fdb462" stroke="black" cx="1150" cy="-66.8" rx="102.99" ry="18"/>
<text text-anchor="middle" x="1150" y="-62.6" font-family="Times,serif" font-size="14.00">AnnouncementsService</text>
</g>
<!-- AnnouncementsService&#45;&gt;AnnouncementsModule -->
<g id="edge11" class="edge">
<title>AnnouncementsService&#45;&gt;AnnouncementsModule</title>
<path fill="none" stroke="black" d="M1108.24,-83.3C1108.24,-99.5 1108.24,-121.8 1108.24,-121.8 1108.24,-121.8 925.08,-121.8 925.08,-121.8"/>
<polygon fill="black" stroke="black" points="925.08,-118.3 915.08,-121.8 925.08,-125.3 925.08,-118.3"/>
</g>
</g>
</svg>
